<svg width="540" height="714" viewBox="0 0 540 714" fill="none" xmlns="http://www.w3.org/2000/svg">
<g filter="url(#filter0_ddd_139_174370)">
<path opacity="0.178525" fill-rule="evenodd" clip-rule="evenodd" d="M350.483 182.685L303.789 168.176L267.943 201.417L278.791 249.168L325.486 263.677L361.332 230.436L350.483 182.685Z" fill="#7D7D7D"/>
<path opacity="0.222075" fill-rule="evenodd" clip-rule="evenodd" d="M445.679 159.638L398.985 145.129L363.139 178.371L373.987 226.121L420.682 240.63L456.528 207.389L445.679 159.638Z" fill="#7D7D7D"/>
<path opacity="0.222075" fill-rule="evenodd" clip-rule="evenodd" d="M284.795 111.841L238.101 97.3312L202.255 130.573L213.103 178.323L259.797 192.832L295.643 159.591L284.795 111.841Z" fill="#7D7D7D"/>
<path opacity="0.331706" fill-rule="evenodd" clip-rule="evenodd" d="M334.132 77.2727L298.245 110.464L309.056 158.087L355.753 172.521L391.64 139.33L380.83 91.7058L334.132 77.2727Z" fill="#7D7D7D"/>
<path opacity="0.275019" fill-rule="evenodd" clip-rule="evenodd" d="M246.196 295.988L257.007 343.612L303.704 358.044L339.591 324.853L328.781 277.23L282.084 262.796L246.196 295.988Z" fill="#7D7D7D"/>
<path opacity="0.767625" fill-rule="evenodd" clip-rule="evenodd" d="M336.777 270.014L347.587 317.638L394.284 332.071L430.171 298.88L419.361 251.256L372.663 236.823L336.777 270.014Z" fill="#7D7D7D"/>
<g clip-path="url(#clip0_139_174370)">
<path fill-rule="evenodd" clip-rule="evenodd" d="M263.609 140.191H49.8593V123.057C49.8593 119.341 52.884 116.327 56.6148 116.327H256.854C260.585 116.327 263.609 119.341 263.609 123.057V140.191Z" fill="#121212"/>
<path fill-rule="evenodd" clip-rule="evenodd" d="M255.727 305.247H57.0232C52.8685 305.247 49.5 302.238 49.5 298.526V138.5H263.25V298.526C263.25 302.238 259.882 305.247 255.727 305.247Z" fill="#F5F5F5"/>
<path fill-rule="evenodd" clip-rule="evenodd" d="M65.3606 127.433C65.3606 129.765 63.4741 131.656 61.147 131.656C58.8202 131.656 56.934 129.765 56.934 127.433C56.934 125.1 58.8202 123.209 61.147 123.209C63.4741 123.209 65.3606 125.1 65.3606 127.433Z" fill="#F5F5F5"/>
<path fill-rule="evenodd" clip-rule="evenodd" d="M81.0953 127.433C81.0953 129.765 79.2091 131.656 76.882 131.656C74.5552 131.656 72.6689 129.765 72.6689 127.433C72.6689 125.1 74.5552 123.209 76.882 123.209C79.2091 123.209 81.0953 125.1 81.0953 127.433Z" fill="#7D7D7D"/>
<path fill-rule="evenodd" clip-rule="evenodd" d="M96.8302 127.433C96.8302 129.765 94.9439 131.656 92.6168 131.656C90.29 131.656 88.4038 129.765 88.4038 127.433C88.4038 125.1 90.29 123.209 92.6168 123.209C94.9439 123.209 96.8302 125.1 96.8302 127.433Z" fill="#7D7D7D"/>
<path d="M244.632 153.004H68.8371C66.6306 153.004 64.8418 154.792 64.8418 156.999V172.98C64.8418 175.187 66.6306 176.976 68.8371 176.976H244.632C246.838 176.976 248.627 175.187 248.627 172.98V156.999C248.627 154.792 246.838 153.004 244.632 153.004Z" fill="#D9D9D9"/>
<path d="M205.677 153.004H245.631C247.837 153.004 249.626 154.792 249.626 156.999V172.98C249.626 175.187 247.837 176.976 245.631 176.976H205.677V153.004Z" fill="#121212"/>
<path d="M104.795 188.962H68.8371C66.6306 188.962 64.8418 190.75 64.8418 192.957V264.873C64.8418 267.079 66.6306 268.868 68.8371 268.868H104.795C107.002 268.868 108.79 267.079 108.79 264.873V192.957C108.79 190.75 107.002 188.962 104.795 188.962Z" fill="#7D7D7D"/>
<path d="M244.632 188.962H122.774C120.568 188.962 118.779 190.75 118.779 192.957V264.873C118.779 267.079 120.568 268.868 122.774 268.868H244.632C246.838 268.868 248.627 267.079 248.627 264.873V192.957C248.627 190.75 246.838 188.962 244.632 188.962Z" fill="#D9D9D9"/>
<path d="M228.144 204.943H133.268C131.886 204.943 130.765 206.064 130.765 207.447C130.765 208.829 131.886 209.95 133.268 209.95H228.144C229.527 209.95 230.648 208.829 230.648 207.447C230.648 206.064 229.527 204.943 228.144 204.943Z" fill="#F5F5F5"/>
<path d="M228.144 234.908H133.268C131.886 234.908 130.765 236.029 130.765 237.412C130.765 238.794 131.886 239.915 133.268 239.915H228.144C229.527 239.915 230.648 238.794 230.648 237.412C230.648 236.029 229.527 234.908 228.144 234.908Z" fill="#F5F5F5"/>
<path d="M198.179 219.925H133.268C131.886 219.925 130.765 221.046 130.765 222.429C130.765 223.812 131.886 224.933 133.268 224.933H198.179C199.562 224.933 200.683 223.812 200.683 222.429C200.683 221.046 199.562 219.925 198.179 219.925Z" fill="#F5F5F5"/>
<path d="M198.179 249.89H133.268C131.886 249.89 130.765 251.011 130.765 252.394C130.765 253.777 131.886 254.898 133.268 254.898H198.179C199.562 254.898 200.683 253.777 200.683 252.394C200.683 251.011 199.562 249.89 198.179 249.89Z" fill="#F5F5F5"/>
<path d="M81.8219 277.858H66.8395C65.7362 277.858 64.8418 278.752 64.8418 279.855V288.378C64.8418 289.482 65.7362 290.376 66.8395 290.376H81.8219C82.9252 290.376 83.8196 289.482 83.8196 288.378V279.855C83.8196 278.752 82.9252 277.858 81.8219 277.858Z" fill="#7D7D7D"/>
<path d="M98.9534 204.943H74.3576C73.5153 204.943 72.8325 205.626 72.8325 206.468V210.24C72.8325 211.082 73.5153 211.765 74.3576 211.765H98.9534C99.7957 211.765 100.478 211.082 100.478 210.24V206.468C100.478 205.626 99.7957 204.943 98.9534 204.943Z" fill="#F5F5F5"/>
<path d="M98.9766 217.928H74.3344C73.505 217.928 72.8325 218.6 72.8325 219.43V223.041C72.8325 223.871 73.505 224.543 74.3344 224.543H98.9766C99.806 224.543 100.478 223.871 100.478 223.041V219.43C100.478 218.6 99.806 217.928 98.9766 217.928Z" fill="#F5F5F5"/>
<path d="M98.9766 230.913H74.3344C73.505 230.913 72.8325 231.585 72.8325 232.414V236.026C72.8325 236.856 73.505 237.528 74.3344 237.528H98.9766C99.806 237.528 100.478 236.856 100.478 236.026V232.414C100.478 231.585 99.806 230.913 98.9766 230.913Z" fill="#F5F5F5"/>
<path d="M98.9766 243.897H74.3344C73.505 243.897 72.8325 244.57 72.8325 245.399V249.011C72.8325 249.84 73.505 250.513 74.3344 250.513H98.9766C99.806 250.513 100.478 249.84 100.478 249.011V245.399C100.478 244.57 99.806 243.897 98.9766 243.897Z" fill="#F5F5F5"/>
<path d="M244.132 277.857H237.64C235.985 277.857 234.643 279.199 234.643 280.854V287.379C234.643 289.034 235.985 290.376 237.64 290.376H244.132C245.787 290.376 247.129 289.034 247.129 287.379V280.854C247.129 279.199 245.787 277.857 244.132 277.857Z" fill="#7D7D7D"/>
<path d="M227.152 277.857H220.66C219.005 277.857 217.663 279.199 217.663 280.854V287.379C217.663 289.034 219.005 290.376 220.66 290.376H227.152C228.807 290.376 230.148 289.034 230.148 287.379V280.854C230.148 279.199 228.807 277.857 227.152 277.857Z" fill="#7D7D7D"/>
<path d="M209.173 277.857H202.681C201.026 277.857 199.684 279.199 199.684 280.854V287.379C199.684 289.034 201.026 290.376 202.681 290.376H209.173C210.828 290.376 212.169 289.034 212.169 287.379V280.854C212.169 279.199 210.828 277.857 209.173 277.857Z" fill="#7D7D7D"/>
</g>
<path d="M332.807 441.955H265.193C263.078 441.955 261.364 443.652 261.364 445.746V549.227C261.364 551.321 263.078 553.018 265.193 553.018H349.284C351.399 553.018 353.113 551.321 353.113 549.227V462.215L332.807 441.955Z" fill="#7D7D7D"/>
<path d="M332.807 441.797L332.839 458.431C332.839 460.525 334.554 462.223 336.669 462.223H353.113" fill="#434343"/>
<path d="M302.175 452.094H234.716C232.601 452.094 230.887 453.792 230.887 455.886V559.366C230.887 561.46 232.601 563.158 234.716 563.158H318.966C321.081 563.158 322.796 561.46 322.796 559.366V474.249H308.079C305.965 474.249 302.175 472.552 302.175 470.457V452.094Z" fill="#F5F5F5"/>
<path d="M258.736 462.194H243.564C242.113 462.194 240.938 463.362 240.938 464.803V479.808C240.938 481.249 242.113 482.416 243.564 482.416H258.736C260.186 482.416 261.362 481.249 261.362 479.808V464.803C261.362 463.362 260.186 462.194 258.736 462.194Z" fill="#FF7875"/>
<path d="M311.469 492.527H241.891C241.365 492.527 240.938 492.951 240.938 493.475V496.636C240.938 497.159 241.365 497.583 241.891 497.583H311.469C311.996 497.583 312.423 497.159 312.423 496.636V493.475C312.423 492.951 311.996 492.527 311.469 492.527Z" fill="#7D7D7D"/>
<path d="M311.469 507.677H241.891C241.365 507.677 240.938 508.101 240.938 508.624V511.785C240.938 512.308 241.365 512.732 241.891 512.732H311.469C311.996 512.732 312.423 512.308 312.423 511.785V508.624C312.423 508.101 311.996 507.677 311.469 507.677Z" fill="#121212"/>
<path d="M311.469 522.843H241.891C241.365 522.843 240.938 523.267 240.938 523.79V526.951C240.938 527.474 241.365 527.899 241.891 527.899H311.469C311.996 527.899 312.423 527.474 312.423 526.951V523.79C312.423 523.267 311.996 522.843 311.469 522.843Z" fill="#121212"/>
<path d="M302.176 452.094V470.457C302.176 472.551 303.89 474.249 306.005 474.249H322.796" fill="#D9D9D9"/>
<g filter="url(#filter1_d_139_174370)">
<path fill-rule="evenodd" clip-rule="evenodd" d="M413.329 234.891H236.729V219.067C236.729 215.635 239.512 212.852 242.945 212.852H407.113C410.546 212.852 413.329 215.635 413.329 219.067V234.891Z" fill="#121212"/>
<path fill-rule="evenodd" clip-rule="evenodd" d="M407.113 387.251H242.945C239.512 387.251 236.729 384.469 236.729 381.036V233.038H413.329V381.036C413.329 384.469 410.546 387.251 407.113 387.251Z" fill="#F5F5F5"/>
<path fill-rule="evenodd" clip-rule="evenodd" d="M251.081 223.108C251.081 225.263 249.334 227.009 247.18 227.009C245.026 227.009 243.279 225.263 243.279 223.108C243.279 220.954 245.026 219.208 247.18 219.208C249.334 219.208 251.081 220.954 251.081 223.108Z" fill="#F5F5F5"/>
<path fill-rule="evenodd" clip-rule="evenodd" d="M265.649 223.108C265.649 225.263 263.902 227.009 261.748 227.009C259.593 227.009 257.847 225.263 257.847 223.108C257.847 220.954 259.593 219.208 261.748 219.208C263.902 219.208 265.649 220.954 265.649 223.108Z" fill="#7D7D7D"/>
<path fill-rule="evenodd" clip-rule="evenodd" d="M280.216 223.108C280.216 225.263 278.47 227.009 276.316 227.009C274.161 227.009 272.415 225.263 272.415 223.108C272.415 220.954 274.161 219.208 276.316 219.208C278.47 219.208 280.216 220.954 280.216 223.108Z" fill="#7D7D7D"/>
<path fill-rule="evenodd" clip-rule="evenodd" d="M384.704 349.628H264.483C263.338 349.628 262.411 348.7 262.411 347.556V252.207C262.411 251.063 263.338 250.136 264.483 250.136H384.704C385.849 250.136 386.776 251.063 386.776 252.207V347.556C386.776 348.7 385.849 349.628 384.704 349.628Z" fill="#BFBFBF"/>
<path fill-rule="evenodd" clip-rule="evenodd" d="M375.999 340.922H273.188C272.044 340.922 271.116 339.995 271.116 338.851V260.913C271.116 259.769 272.044 258.841 273.188 258.841H375.999C377.143 258.841 378.071 259.769 378.071 260.913V338.851C378.071 339.995 377.143 340.922 375.999 340.922Z" fill="#F5F5F5"/>
<path fill-rule="evenodd" clip-rule="evenodd" d="M301.476 340.913H378.76L347.582 301.656C344.686 298.01 339.196 297.877 336.127 301.378L301.476 340.913Z" fill="#121212"/>
<path fill-rule="evenodd" clip-rule="evenodd" d="M272.469 340.822H340.167L311.306 309.764C308.32 306.55 303.22 306.593 300.289 309.856L272.469 340.822Z" fill="#7D7D7D"/>
<path fill-rule="evenodd" clip-rule="evenodd" d="M324.246 282.202C324.246 290.993 317.12 298.12 308.329 298.12C299.538 298.12 292.411 290.993 292.411 282.202C292.411 273.411 299.538 266.285 308.329 266.285C317.12 266.285 324.246 273.411 324.246 282.202Z" fill="#FF7875"/>
<path d="M385.948 360.848C386.306 360.848 386.596 361.138 386.596 361.496C386.596 361.84 386.326 362.122 385.986 362.142L385.948 362.143H262.69C262.333 362.143 262.043 361.853 262.043 361.496C262.043 361.151 262.313 360.869 262.652 360.849L262.69 360.848H385.948Z" fill="#7D7D7D"/>
<path d="M325.72 370.109C326.078 370.109 326.367 370.399 326.367 370.757C326.367 371.102 326.098 371.383 325.758 371.403L325.72 371.404H262.69C262.333 371.404 262.043 371.114 262.043 370.757C262.043 370.412 262.313 370.13 262.652 370.11L262.69 370.109H325.72Z" fill="#7D7D7D"/>
</g>
<g clip-path="url(#clip1_139_174370)">
<path fill-rule="evenodd" clip-rule="evenodd" d="M123.189 258.789C125.388 259.445 126.766 259.916 131.399 260.177C139.588 260.639 145.511 258.134 148.286 256.475C149.071 256.004 149.739 252.973 150.073 251.175C150.123 250.903 150.511 250.899 150.568 251.169C150.887 252.674 150.017 255.522 150.301 255.394C152.176 254.556 160.784 248.654 156.497 239.503C153.244 232.558 152.779 229.319 152.779 229.319C150.144 200.775 133.413 203.758 133.413 203.758C133.413 203.758 114.513 199.232 112.345 228.085C111.416 236.571 106.923 239.194 108.722 248.589C109.328 251.761 111.431 254.449 114.426 255.684C115.027 255.93 115.703 255.56 115.813 254.922C116.062 252.617 115.288 251.074 117.457 256.166C117.457 256.166 119.612 257.721 123.189 258.789Z" fill="#5C4E4A"/>
<path fill-rule="evenodd" clip-rule="evenodd" d="M148.925 235.053C148.988 234.728 149.433 234.687 149.556 234.995C150.632 237.711 153.258 245.058 150.353 245.57C147.075 246.148 148.354 238.018 148.925 235.053Z" fill="white"/>
<path fill-rule="evenodd" clip-rule="evenodd" d="M123.882 261.332C124.298 247.997 123.742 242.814 123.742 242.814L140.612 246.552L142.211 260.593C142.801 265.763 139 270.394 133.822 270.816C128.345 271.264 123.711 266.831 123.882 261.332Z" fill="#F4B784"/>
<path fill-rule="evenodd" clip-rule="evenodd" d="M130.097 217.549C130.097 217.549 128.734 215.982 132.465 218.208C135.131 219.8 138.214 220.164 140.87 220.835C148.229 222.695 146.648 221.928 149.8 221.928C150.444 228.4 152.141 249.731 138.214 251.634C132.797 252.373 125.959 249.517 122.546 241.84C120.484 237.201 121.53 232.197 123.362 231.082C129.4 227.409 129.027 224.136 130.097 217.549Z" fill="#FFC999"/>
<path d="M141.325 225.573C141.538 225.618 141.682 225.81 141.672 226.021L141.663 226.092L140.961 229.422L141.032 230.007C141.101 230.546 141.191 231.176 141.306 231.892L141.467 232.858C141.778 234.663 142.182 236.661 142.692 238.824C142.74 239.027 142.639 239.235 142.45 239.322L141.524 239.757L139.886 240.539L138.348 241.284C138.131 241.391 137.869 241.3 137.763 241.083C137.656 240.865 137.747 240.603 137.964 240.496L138.95 240.018C139.506 239.748 140.067 239.479 140.612 239.22L141.758 238.678L141.702 238.435C141.207 236.284 140.817 234.301 140.52 232.514L140.441 232.031L140.348 231.431C140.289 231.045 140.238 230.687 140.194 230.359L140.106 229.655L140.083 229.443L140.09 229.309L140.806 225.911C140.851 225.698 141.044 225.554 141.254 225.563L141.325 225.573Z" fill="#DD936F"/>
<path d="M134.586 243.844C134.67 243.54 134.984 243.36 135.288 243.444C137.678 244.098 139.921 244.18 141.805 243.929L142.044 243.895C142.263 243.861 142.42 243.831 142.508 243.81C142.815 243.736 143.123 243.926 143.196 244.233C143.269 244.54 143.08 244.849 142.773 244.922L142.635 244.952C142.473 244.985 142.245 245.024 141.955 245.063C139.93 245.332 137.537 245.245 134.987 244.547C134.683 244.463 134.503 244.149 134.586 243.844Z" fill="#FF4D4F"/>
<path d="M140.219 247.067C140.46 247.056 140.665 247.243 140.677 247.485C140.687 247.702 140.537 247.891 140.331 247.934L140.26 247.943L138.735 248.015C138.494 248.027 138.289 247.84 138.277 247.598C138.267 247.38 138.417 247.192 138.623 247.149L138.694 247.139L140.219 247.067Z" fill="#DD936F"/>
<path fill-rule="evenodd" clip-rule="evenodd" d="M113.949 234.967C112.449 229.558 117.727 229.57 117.727 229.57C117.727 229.57 118.162 235.026 119.889 239.822C114.609 239.984 113.949 234.967 113.949 234.967Z" fill="#FFC999"/>
<path fill-rule="evenodd" clip-rule="evenodd" d="M117.151 238.628C117.214 238.303 117.659 238.262 117.781 238.57C118.858 241.287 121.483 248.633 118.578 249.146C115.301 249.723 116.58 241.593 117.151 238.628Z" fill="white"/>
<path fill-rule="evenodd" clip-rule="evenodd" d="M172.121 342.029C172.121 342.029 174.185 300.766 173.831 293.035C172.976 274.364 162.424 270.86 154.374 277.841C144.67 286.255 152.364 344.533 152.364 344.533C152.364 344.533 153.9 351.104 162.481 351.882C172.625 352.8 172.121 342.029 172.121 342.029Z" fill="#FFC999"/>
<path fill-rule="evenodd" clip-rule="evenodd" d="M173.765 312.057C173.782 308.183 178.623 274.592 162.155 274.08C149.585 273.689 148.184 284.928 149.904 312.743L173.765 312.057Z" fill="#FF4D4F"/>
<path fill-rule="evenodd" clip-rule="evenodd" d="M243.62 339.167C243.62 339.167 232.268 344.339 225.693 343C220.317 341.905 223.495 336.48 223.495 336.48C223.495 336.48 229.451 327.773 234.193 323.773C237.3 321.149 242.464 315.282 244.231 316.514C246.536 318.12 240.278 323.256 240.876 325.212C242.088 329.176 252.782 322.134 255.127 321.925C259.713 321.514 257.243 331.841 243.62 339.167Z" fill="#FFC999"/>
<path d="M255.698 323.61C255.876 323.446 256.153 323.457 256.317 323.635C256.481 323.812 256.47 324.09 256.292 324.254C255.321 325.153 254.223 325.974 253.02 326.721C251.341 327.765 249.544 328.616 247.748 329.289C247.244 329.478 246.77 329.641 246.331 329.781L246.009 329.882C245.692 329.978 245.464 330.041 245.339 330.072C245.105 330.131 244.867 329.989 244.808 329.754C244.749 329.519 244.891 329.281 245.126 329.222L245.415 329.143C245.511 329.115 245.625 329.082 245.755 329.042C246.263 328.888 246.83 328.697 247.44 328.468C249.186 327.813 250.932 326.987 252.558 325.976C253.715 325.257 254.77 324.469 255.698 323.61Z" fill="#DD936F"/>
<path d="M255.693 326.829C255.863 326.657 256.14 326.656 256.312 326.826C256.484 326.997 256.485 327.274 256.315 327.446L256.122 327.631C256.058 327.69 255.981 327.76 255.891 327.839C255.547 328.143 255.136 328.48 254.657 328.842C253.293 329.874 251.657 330.904 249.747 331.865C248.431 332.527 247.027 333.133 245.536 333.671C245.308 333.753 245.057 333.635 244.975 333.407C244.893 333.179 245.011 332.928 245.239 332.846C246.697 332.32 248.068 331.728 249.354 331.081C251.215 330.145 252.806 329.143 254.129 328.143C254.513 327.852 254.851 327.579 255.142 327.329L255.461 327.047C255.573 326.946 255.65 326.873 255.693 326.829Z" fill="#DD936F"/>
<path d="M252.337 331.905C252.537 331.768 252.809 331.82 252.946 332.02C253.082 332.22 253.031 332.493 252.831 332.629C250.641 334.127 248.642 335.261 246.872 336.08C246.339 336.327 245.858 336.53 245.435 336.693L245.228 336.772C244.94 336.878 244.74 336.943 244.632 336.974C244.4 337.041 244.157 336.906 244.091 336.674C244.024 336.441 244.159 336.198 244.391 336.131L244.63 336.054C244.684 336.036 244.746 336.014 244.815 335.989L244.924 335.949C245.375 335.782 245.903 335.563 246.504 335.284C248.23 334.485 250.187 333.376 252.337 331.905Z" fill="#DD936F"/>
<path fill-rule="evenodd" clip-rule="evenodd" d="M232.268 331.437C232.268 331.437 173.615 332.048 166.057 333.664C147.315 337.671 150.944 355.562 164.371 355.903C182.236 356.356 233.826 342.451 233.826 342.451L232.268 331.437Z" fill="#FFC999"/>
<path fill-rule="evenodd" clip-rule="evenodd" d="M115.099 512.353C115.201 512.099 87.1286 582.151 84.79 586.429C78.4066 598.104 76.1901 598.97 80.7133 605.482C81.8724 607.151 84.7683 607.577 85.7343 611.807C88.3813 623.381 96.0653 633.331 99.7892 629.561C102.905 625.828 93.9277 603.537 97.0417 593.991C100.278 584.075 146.819 513.592 148.09 504.557C149.956 491.289 144.119 464.464 115.099 512.353Z" fill="#FFC999"/>
<path fill-rule="evenodd" clip-rule="evenodd" d="M75.8801 604.781C75.8801 604.781 77.3303 597.33 82.8824 590.285C82.8824 590.285 85.4985 597.968 87.192 605.739C89.1481 614.711 90.2626 615.726 90.2626 615.726C95.777 621.458 99.3706 618.472 99.3706 618.472C99.3706 618.472 100.43 625.14 104.502 633.935C108.15 641.811 83.8622 629.631 83.9113 621.824C83.9604 614.016 81.6011 608.139 81.6011 608.139L74.7302 616.227L72.5 614.915L75.8801 604.781Z" fill="#121212"/>
<path fill-rule="evenodd" clip-rule="evenodd" d="M120.049 478.677L83.9221 573.593L123.931 591.255C123.931 591.255 142.486 542.355 159.877 492.022C159.877 492.022 169.974 467.376 149.408 459.713C128.842 452.047 120.049 478.677 120.049 478.677Z" fill="#BFBFBF"/>
<path fill-rule="evenodd" clip-rule="evenodd" d="M171.034 463.579C180.136 416.189 177.87 377.727 174.696 367.286C174.696 367.286 167.155 352.186 150.841 360.265C131.821 369.688 131.819 386.194 131.819 386.194L126.314 460.71C126.076 466.815 124.837 485.724 148.239 488.056C171.274 490.352 170.844 464.566 171.034 463.579Z" fill="#BFBFBF"/>
<path fill-rule="evenodd" clip-rule="evenodd" d="M125.348 340.628C134.34 342.823 156.972 341.345 159.643 340.199C162.314 339.052 159.858 333.974 159.858 333.974C159.858 333.974 169.777 313.178 170.158 307.446C170.54 301.715 165.436 288.755 165.436 288.755C165.436 288.755 166.767 277.536 163.716 276.023C159.906 274.135 149.829 270.209 146.872 268.68C143.915 267.151 143.42 259.731 143.42 259.731L123.432 258.492C123.432 258.492 122.32 264.168 121.141 266.134C118.853 269.955 112.179 264.362 106.441 269.871C93.9953 281.819 115.547 315.244 123.319 332.509C123.319 332.509 120.592 336.706 125.348 340.628Z" fill="#FF4D4F"/>
<path d="M123.728 268.01L142.807 270.315C143.12 270.353 143.344 270.638 143.306 270.951C143.271 271.239 143.029 271.45 142.748 271.454L142.671 271.45L123.591 269.145C123.278 269.107 123.055 268.823 123.093 268.509C123.127 268.222 123.369 268.01 123.651 268.006L123.728 268.01Z" fill="#121212"/>
<path d="M123.649 271.264C123.722 270.983 123.99 270.806 124.27 270.84L124.346 270.855L134.434 273.489C134.739 273.569 134.922 273.881 134.842 274.187C134.769 274.467 134.501 274.644 134.222 274.61L134.145 274.596L124.058 271.961C123.752 271.881 123.57 271.569 123.649 271.264Z" fill="#121212"/>
<path d="M123.792 300.057C124.006 299.825 124.367 299.81 124.599 300.025L124.753 300.157C124.865 300.248 125.019 300.366 125.215 300.505C125.747 300.883 126.381 301.262 127.113 301.617C130.493 303.255 134.626 303.806 139.464 302.627L139.858 302.527C141.573 302.079 145.573 302.083 151.257 302.415C152.663 302.497 154.135 302.598 155.65 302.714L156.564 302.785C157.994 302.898 159.39 303.019 160.711 303.14L162.531 303.312L163.308 303.39C163.621 303.422 163.85 303.703 163.817 304.017C163.785 304.331 163.504 304.56 163.191 304.527L161.259 304.339L159.267 304.158C158.359 304.078 157.424 304 156.474 303.925L154.664 303.786C153.77 303.721 152.893 303.661 152.038 303.608L150.445 303.515C145.42 303.24 141.799 303.247 140.255 303.607L140.146 303.634C134.864 305.013 130.323 304.442 126.616 302.646C125.825 302.263 125.137 301.851 124.555 301.438L124.31 301.26C124.085 301.091 123.923 300.956 123.824 300.865C123.592 300.651 123.578 300.289 123.792 300.057Z" fill="#121212"/>
<path d="M164.56 280.335C164.848 280.303 165.109 280.491 165.177 280.764L165.19 280.84L165.9 287.31L166.076 287.758C166.206 288.092 166.348 288.463 166.499 288.866L166.614 289.174C167.17 290.669 167.727 292.254 168.246 293.861C168.665 295.156 169.042 296.412 169.367 297.609C170.215 300.732 170.672 303.304 170.634 305.165C170.603 306.67 170.283 308.465 169.72 310.494C169.342 311.857 168.863 313.295 168.307 314.775C167.801 316.121 167.26 317.428 166.718 318.647L166.392 319.368L166.108 319.979C166.057 320.087 166.018 320.167 165.993 320.218C165.854 320.502 165.512 320.619 165.229 320.48C164.946 320.341 164.829 319.998 164.968 319.715L165.161 319.31C165.285 319.045 165.42 318.75 165.565 318.428L165.675 318.181C166.208 316.983 166.741 315.696 167.238 314.373C167.783 312.922 168.252 311.515 168.62 310.188C169.159 308.243 169.464 306.537 169.492 305.141C169.527 303.416 169.086 300.934 168.265 297.909C167.945 296.73 167.573 295.492 167.16 294.213C166.732 292.888 166.278 291.577 165.819 290.321L165.544 289.573C165.39 289.159 165.245 288.775 165.11 288.427L164.811 287.664L164.774 287.513L164.055 280.965C164.021 280.651 164.247 280.369 164.56 280.335Z" fill="#121212"/>
<path fill-rule="evenodd" clip-rule="evenodd" d="M176.625 379.091C176.625 379.091 174.355 354.04 162.891 345.514L123.124 345.787C123.124 345.787 104.176 359.13 108.462 390.037L143.079 398.36L154.119 402.056C154.119 402.056 171.695 390.896 176.625 379.091Z" fill="#F0F0F0"/>
<path fill-rule="evenodd" clip-rule="evenodd" d="M122.297 346.315L163.335 346.252L159.906 339.813L122.933 340.113L122.297 346.315Z" fill="#E4EBF7"/>
<path d="M150.517 346.823C150.748 346.771 150.977 346.917 151.028 347.148C153.936 360.271 154.472 373.456 153.647 384.894L153.592 385.619C153.546 386.204 153.498 386.744 153.45 387.237L153.364 388.066L153.318 388.46C153.288 388.695 153.074 388.861 152.839 388.831C152.605 388.801 152.439 388.586 152.469 388.351L152.531 387.807L152.57 387.44C152.646 386.691 152.722 385.818 152.793 384.832C153.612 373.471 153.08 360.365 150.192 347.334C150.14 347.103 150.286 346.874 150.517 346.823Z" fill="#A3B5D6"/>
<path d="M163.118 345.822C163.354 345.82 163.548 346.01 163.55 346.247C163.552 346.46 163.398 346.639 163.195 346.674L163.125 346.68L122.434 347.035C122.197 347.038 122.004 346.847 122.002 346.61C122 346.397 122.154 346.219 122.357 346.184L122.426 346.178L163.118 345.822Z" fill="#A3B5D6"/>
<path fill-rule="evenodd" clip-rule="evenodd" d="M141.843 526.389C141.775 526.103 160.188 605.081 160.762 610.29C162.33 624.505 160.913 626.635 168.904 629.575C170.95 630.328 173.761 628.916 177.215 632.041C186.669 640.595 199.555 644.61 200.512 638.994C200.958 633.784 179.335 619.707 176.201 609.384C172.944 598.659 170.522 507.902 166.08 499.166C159.555 486.336 137.906 466.332 141.843 526.389Z" fill="#FFC999"/>
<path fill-rule="evenodd" clip-rule="evenodd" d="M164.217 631.94C164.217 631.94 160.906 624.487 161.458 614.86C161.458 614.86 168.489 620.008 174.762 625.8C182.007 632.491 183.612 632.695 183.612 632.695C191.993 634.337 193.317 629.491 193.317 629.491C193.317 629.491 198.354 634.706 207.353 639.933C215.41 644.615 186.538 648.883 181.775 641.982C177.013 635.081 171.318 631.364 171.318 631.364L170.249 642.723L167.479 642.945L164.217 631.94Z" fill="#121212"/>
<path fill-rule="evenodd" clip-rule="evenodd" d="M131.132 483.031L147.73 590.898L194.468 586.119C194.468 586.119 185.863 530.578 175.411 474.315C175.411 474.315 171.77 445.927 148.496 449.705C125.221 453.483 131.132 483.031 131.132 483.031Z" fill="#F0F0F0"/>
<path fill-rule="evenodd" clip-rule="evenodd" d="M170.461 455.718C158.89 411.065 151.475 376.795 145.116 367.931C145.116 367.931 129.677 355.364 118.109 362.457C102.354 372.116 108.891 392.613 108.891 392.613L130.969 479.324C132.705 485.182 136.997 500.102 159.905 494.778C182.456 489.537 170.714 456.691 170.461 455.718Z" fill="#F0F0F0"/>
<path fill-rule="evenodd" clip-rule="evenodd" d="M103.343 334.784C103.343 334.784 116.844 295.743 118.662 288.223C123.053 270.057 113.899 263.739 104.221 268.187C92.5553 273.55 83.6746 331.659 83.6746 331.659C83.6746 331.659 83.3149 338.398 91.3369 341.546C100.819 345.267 103.343 334.784 103.343 334.784Z" fill="#FFC999"/>
<path fill-rule="evenodd" clip-rule="evenodd" d="M113.287 306.467C114.386 302.753 128.411 271.855 112.743 266.754C100.783 262.861 96.3002 273.259 90.1875 300.447L113.287 306.467Z" fill="#FF4D4F"/>
<path d="M117.549 293.106C117.657 292.809 117.985 292.657 118.281 292.765C118.553 292.864 118.704 293.148 118.644 293.423L118.622 293.498L113.824 306.663C113.732 306.915 113.48 307.066 113.221 307.035L113.143 307.021L90.0435 301.001C89.7383 300.921 89.5553 300.609 89.6348 300.303C89.7076 300.023 89.9756 299.846 90.2548 299.879L90.3311 299.894L112.929 305.783L117.549 293.106Z" fill="#121212"/>
<path fill-rule="evenodd" clip-rule="evenodd" d="M240.051 346.411L164.057 342.947C161.168 342.815 159.233 339.92 160.211 337.195L179.166 284.473C179.805 282.698 181.522 281.547 183.403 281.632L259.397 285.096C262.286 285.229 264.223 288.124 263.243 290.849L244.288 343.572C243.65 345.345 241.932 346.497 240.051 346.411Z" fill="#121212"/>
<path fill-rule="evenodd" clip-rule="evenodd" d="M172.791 352.05C172.791 352.05 160.448 353.837 154.508 350.712C149.652 348.156 154.218 343.836 154.218 343.836C154.218 343.836 162.367 337.145 168.036 334.63C171.752 332.982 178.348 328.794 179.701 330.472C181.465 332.659 174.024 335.838 174.052 337.884C174.108 342.029 186.342 338.26 188.652 338.716C193.17 339.606 187.916 348.83 172.791 352.05Z" fill="#FFC999"/>
<path d="M188.731 340.494C188.947 340.386 189.21 340.474 189.318 340.691C189.426 340.907 189.338 341.171 189.121 341.279C188.375 341.652 187.586 341.981 186.762 342.27C184.784 342.963 182.672 343.398 180.539 343.627C179.253 343.765 178.144 343.812 177.301 343.805L176.98 343.799C176.738 343.79 176.55 343.586 176.559 343.344C176.568 343.102 176.771 342.914 177.013 342.923L177.113 342.925L177.518 342.928C178.301 342.926 179.3 342.878 180.446 342.755C182.516 342.533 184.564 342.111 186.473 341.442C187.263 341.165 188.018 340.85 188.731 340.494Z" fill="#DD936F"/>
<path d="M187.826 343.583C188.037 343.465 188.304 343.541 188.421 343.753C188.539 343.965 188.462 344.232 188.251 344.349L188.057 344.451L187.985 344.487C187.772 344.592 187.521 344.709 187.232 344.835C186.411 345.191 185.448 345.546 184.348 345.878C181.919 346.61 179.182 347.12 176.164 347.309C175.922 347.324 175.714 347.141 175.699 346.899C175.684 346.657 175.867 346.449 176.109 346.434C179.058 346.249 181.729 345.751 184.096 345.038C185.162 344.717 186.093 344.373 186.884 344.03C187.09 343.94 187.276 343.856 187.439 343.777L187.717 343.64C187.768 343.614 187.804 343.595 187.826 343.583Z" fill="#DD936F"/>
<path d="M183.187 347.517C183.417 347.442 183.664 347.567 183.739 347.797C183.815 348.028 183.689 348.275 183.459 348.351C180.954 349.171 178.729 349.698 176.808 349.991L176.359 350.056C175.57 350.165 174.972 350.213 174.573 350.225L174.376 350.228C174.132 350.227 173.937 350.03 173.938 349.788C173.939 349.57 174.099 349.39 174.307 349.356L174.378 349.351L174.56 349.347C174.664 349.343 174.799 349.335 174.965 349.323C175.449 349.288 176.02 349.224 176.676 349.124C178.55 348.839 180.728 348.322 183.187 347.517Z" fill="#DD936F"/>
<path fill-rule="evenodd" clip-rule="evenodd" d="M164.049 341.45C164.049 341.45 107.564 325.619 99.8555 325.056C80.742 323.656 79.2312 341.852 92.0288 345.936C109.055 351.372 162.468 352.461 162.468 352.461L164.049 341.45Z" fill="#FFC999"/>
<path fill-rule="evenodd" clip-rule="evenodd" d="M142.421 226.613C142.503 226.613 142.587 226.589 142.663 226.537C144.994 224.977 148.607 226.128 148.644 226.14C148.906 226.23 149.184 226.037 149.257 225.715C149.329 225.395 149.171 225.063 148.904 224.976C148.742 224.922 144.861 223.687 142.178 225.484C141.936 225.645 141.849 226.012 141.984 226.304C142.075 226.501 142.245 226.613 142.421 226.613Z" fill="#5C4E4A" fill-opacity="0.72"/>
<path fill-rule="evenodd" clip-rule="evenodd" d="M126.856 227.664C126.612 227.664 126.376 227.552 126.249 227.354C126.062 227.062 126.183 226.696 126.519 226.534C130.234 224.74 135.906 225.971 136.145 226.024C136.515 226.106 136.74 226.434 136.646 226.757C136.55 227.079 136.172 227.276 135.802 227.193C135.749 227.181 130.423 226.03 127.192 227.588C127.086 227.64 126.97 227.664 126.856 227.664Z" fill="#5C4E4A" fill-opacity="0.72"/>
<path fill-rule="evenodd" clip-rule="evenodd" d="M150.1 230.797C150.1 230.797 153.169 210.854 136.672 210.854C118.857 210.854 122.209 230.667 122.209 230.667C128.434 231.339 131.915 220.392 131.915 220.392C131.915 220.392 132.753 223.902 130.763 227.764C130.524 228.227 130.84 228.781 131.362 228.824C133.643 229.012 135.795 229.006 137.304 228.959C138.833 228.911 140.239 228.051 140.903 226.678C141.61 225.215 142.273 222.993 142.099 219.959C142.099 219.959 142.883 225.595 144.798 228.196C147.012 231.204 150.1 230.797 150.1 230.797Z" fill="#5C4E4A"/>
<path fill-rule="evenodd" clip-rule="evenodd" d="M147.174 232.917C147.174 231.757 146.468 230.816 145.597 230.816C144.727 230.816 144.022 231.757 144.022 232.917C144.022 234.078 144.727 235.019 145.597 235.019C146.468 235.019 147.174 234.078 147.174 232.917Z" fill="#5C4E4A"/>
<path fill-rule="evenodd" clip-rule="evenodd" d="M134.566 232.917C134.566 231.757 133.86 230.816 132.99 230.816C132.119 230.816 131.414 231.757 131.414 232.917C131.414 234.078 132.119 235.019 132.99 235.019C133.86 235.019 134.566 234.078 134.566 232.917Z" fill="#5C4E4A"/>
</g>
</g>
<defs>
<filter id="filter0_ddd_139_174370" x="0.5" y="0.5" width="560" height="714" filterUnits="userSpaceOnUse" color-interpolation-filters="sRGB">
<feFlood flood-opacity="0" result="BackgroundImageFix"/>
<feColorMatrix in="SourceAlpha" type="matrix" values="0 0 0 0 0 0 0 0 0 0 0 0 0 0 0 0 0 0 127 0" result="hardAlpha"/>
<feMorphology radius="8" operator="dilate" in="SourceAlpha" result="effect1_dropShadow_139_174370"/>
<feOffset dy="9"/>
<feGaussianBlur stdDeviation="14"/>
<feColorMatrix type="matrix" values="0 0 0 0 0 0 0 0 0 0 0 0 0 0 0 0 0 0 0.05 0"/>
<feBlend mode="normal" in2="BackgroundImageFix" result="effect1_dropShadow_139_174370"/>
<feColorMatrix in="SourceAlpha" type="matrix" values="0 0 0 0 0 0 0 0 0 0 0 0 0 0 0 0 0 0 127 0" result="hardAlpha"/>
<feOffset dy="6"/>
<feGaussianBlur stdDeviation="8"/>
<feColorMatrix type="matrix" values="0 0 0 0 0 0 0 0 0 0 0 0 0 0 0 0 0 0 0.08 0"/>
<feBlend mode="normal" in2="effect1_dropShadow_139_174370" result="effect2_dropShadow_139_174370"/>
<feColorMatrix in="SourceAlpha" type="matrix" values="0 0 0 0 0 0 0 0 0 0 0 0 0 0 0 0 0 0 127 0" result="hardAlpha"/>
<feMorphology radius="4" operator="erode" in="SourceAlpha" result="effect3_dropShadow_139_174370"/>
<feOffset dy="3"/>
<feGaussianBlur stdDeviation="3"/>
<feColorMatrix type="matrix" values="0 0 0 0 0 0 0 0 0 0 0 0 0 0 0 0 0 0 0.12 0"/>
<feBlend mode="normal" in2="effect2_dropShadow_139_174370" result="effect3_dropShadow_139_174370"/>
<feBlend mode="normal" in="SourceGraphic" in2="effect3_dropShadow_139_174370" result="shape"/>
</filter>
<filter id="filter1_d_139_174370" x="206.5" y="183.5" width="237" height="237" filterUnits="userSpaceOnUse" color-interpolation-filters="sRGB">
<feFlood flood-opacity="0" result="BackgroundImageFix"/>
<feColorMatrix in="SourceAlpha" type="matrix" values="0 0 0 0 0 0 0 0 0 0 0 0 0 0 0 0 0 0 127 0" result="hardAlpha"/>
<feOffset dy="2"/>
<feGaussianBlur stdDeviation="4"/>
<feColorMatrix type="matrix" values="0 0 0 0 0 0 0 0 0 0 0 0 0 0 0 0 0 0 0.15 0"/>
<feBlend mode="normal" in2="BackgroundImageFix" result="effect1_dropShadow_139_174370"/>
<feBlend mode="normal" in="SourceGraphic" in2="effect1_dropShadow_139_174370" result="shape"/>
</filter>
<clipPath id="clip0_139_174370">
<rect width="240" height="240" fill="white" transform="translate(36.5 90.5)"/>
</clipPath>
<clipPath id="clip1_139_174370">
<rect width="196" height="475" fill="white" transform="translate(72.5 193.5)"/>
</clipPath>
</defs>
</svg>
