<svg width="73" height="80" viewBox="0 0 73 80" fill="none" xmlns="http://www.w3.org/2000/svg">
<path fill-rule="evenodd" clip-rule="evenodd" d="M61.5039 20.7539C61.5039 20.7539 67.3478 22.7628 65.2367 29.0231C70.4442 30.7304 68.6316 36.7953 68.6316 36.7953C68.6316 36.7953 74.1254 40.7488 70.5462 45.7234C75.8744 52.1296 70.8655 56.5133 70.8655 56.5133C70.8655 56.5133 73.4583 66.4365 65.8621 65.3721C63.2398 71.7289 56.9131 67.6629 56.9131 67.6629C56.9131 67.6629 48.741 72.6276 48.2044 63.4238C45.7422 58.3738 47.387 57.3799 47.387 57.3799C47.387 57.3799 45.7565 53.3151 48.1013 51.0479C47.2816 47.621 47.0852 23.0435 49.0822 20.1049C46.1153 17.0106 47.1752 13.967 47.1752 13.967C47.1752 13.967 41.6967 15.5939 41 14.2501C41 14.2501 43.4095 5.17862 45.1399 2.95587C46.2919 1.47486 51.9942 1.05207 53.5622 6.69177C53.5622 6.69177 59.3764 8.1802 59.0012 15.0092C61.7025 16.2046 61.5039 20.7539 61.5039 20.7539Z" fill="#3F271B"/>
<path fill-rule="evenodd" clip-rule="evenodd" d="M55.4333 44.1852C58.6564 45.574 61.3782 41.173 62.2999 39.293C63.9461 35.9302 62.6897 32.0691 61.0365 31.2517C59.523 30.5038 57.9507 31.47 57.9507 31.47C57.9507 31.47 55.2677 33.9677 54.6454 39.2501C54.272 42.4109 55.4333 44.1852 55.4333 44.1852Z" fill="#F4B784"/>
<path fill-rule="evenodd" clip-rule="evenodd" d="M26.0207 42.003C23.0664 43.2905 20.5737 39.2106 19.7291 37.4678C18.2208 34.3503 19.3719 30.771 20.8867 30.0132C22.2735 29.3199 23.7141 30.2155 23.7141 30.2155C23.7141 30.2155 26.1724 32.5311 26.7426 37.428C27.0847 40.3581 26.0207 42.003 26.0207 42.003Z" fill="#725C5A"/>
<path fill-rule="evenodd" clip-rule="evenodd" d="M40.374 77.2152C33.6296 77.2152 28.3341 71.4457 28.9239 64.7382L30.4665 47.2161H50.2814L51.8227 64.7382C52.4139 71.4457 47.1184 77.2152 40.374 77.2152Z" fill="#F4B784"/>
<path fill-rule="evenodd" clip-rule="evenodd" d="M58.1347 33.4595C58.1347 15.4025 53.7458 6.81006 40.1237 6.81006C27.6286 6.81006 20.5556 15.4025 22.1655 33.4529C22.1655 33.4529 22.1655 42.725 28.2343 51.0079C30.5277 54.139 35.7453 57.8129 40.2478 57.9314C44.8082 58.0487 49.1088 55.0638 52.2612 50.8841C55.6486 46.3909 58.1347 40.375 58.1347 33.4595Z" fill="#FFC999"/>
<path fill-rule="evenodd" clip-rule="evenodd" d="M40.3211 58.4784C37.6819 58.4784 34.5981 57.2903 32.2743 55.3763C32.1344 55.2604 32.1146 55.0522 32.2307 54.9126C32.3455 54.7717 32.554 54.7519 32.6952 54.8678C34.9055 56.6896 37.8271 57.8198 40.3211 57.8198C42.6317 57.8198 46.0441 56.3353 48.8126 54.1236C48.9551 54.0116 49.1623 54.0327 49.2758 54.175C49.3893 54.3172 49.3668 54.524 49.2243 54.6373C46.3041 56.9702 42.8085 58.4784 40.3211 58.4784Z" fill="#7C5B4D"/>
<path fill-rule="evenodd" clip-rule="evenodd" d="M51.1266 33.9556C51.1266 35.2677 50.3215 36.3318 49.3289 36.3318C48.3363 36.3318 47.5323 35.2677 47.5323 33.9556C47.5323 32.6434 48.3363 31.5793 49.3289 31.5793C50.3215 31.5793 51.1266 32.6434 51.1266 33.9556Z" fill="#42352F"/>
<path fill-rule="evenodd" clip-rule="evenodd" d="M33.9503 36.3318C32.9589 36.3318 32.1538 35.2677 32.1538 33.9556C32.1538 32.6434 32.9589 31.5793 33.9503 31.5793C34.9441 31.5793 35.7481 32.6434 35.7481 33.9556C35.7481 35.2677 34.9441 36.3318 33.9503 36.3318Z" fill="#42352F"/>
<path fill-rule="evenodd" clip-rule="evenodd" d="M29.5191 29.6442C29.2869 29.6442 29.0625 29.5217 28.9424 29.3057C28.7643 28.9869 28.8791 28.5865 29.1984 28.41C32.731 26.4512 38.1241 27.7948 38.3511 27.8528C38.7034 27.9423 38.9172 28.3006 38.8274 28.6537C38.7364 29.0054 38.3775 29.2201 38.0251 29.1292C37.975 29.116 32.9104 27.8594 29.8384 29.5613C29.7382 29.6179 29.6273 29.6442 29.5191 29.6442Z" fill="#3F271B"/>
<path fill-rule="evenodd" clip-rule="evenodd" d="M54.2445 29.6441C54.1363 29.6441 54.0255 29.6178 53.9252 29.5611C50.8519 27.8566 46.0869 29.1133 46.038 29.1264C45.6923 29.2252 45.3255 29.0145 45.2291 28.6628C45.1341 28.3124 45.3426 27.9501 45.695 27.8553C45.9087 27.796 51.0274 26.4471 54.5652 28.4098C54.8845 28.5863 54.9993 28.9868 54.8212 29.3056C54.7011 29.5216 54.4768 29.6441 54.2445 29.6441Z" fill="#3F271B"/>
<path fill-rule="evenodd" clip-rule="evenodd" d="M56.9118 25.2768C56.9121 25.3677 56.9122 25.4589 56.9122 25.5503C56.9122 29.5469 56.0128 33.2193 54.5714 36.4277C60.514 36.002 62.0672 27.4088 60.3518 25.6299C59.2592 24.4954 57.9209 24.7729 56.9118 25.2768Z" fill="#3F271B"/>
<path fill-rule="evenodd" clip-rule="evenodd" d="M33.7573 2.41902C33.7573 2.41902 38.9424 -2.90717 43.898 2.24693C48.0468 -0.273366 52.3098 3.90801 51.2736 8.89125C50.2213 13.9416 45.9718 18.1694 39.0566 16.4509C32.6044 14.9619 30.436 16.9489 31.1641 19.601C32.7198 25.2714 29.0891 27.5049 29.0891 27.5049C29.0891 27.5049 26.8422 29.7383 29.2622 31.6289C30.6202 33.1459 29.3408 35.1585 28.4482 37.0234C27.8023 38.3696 28.0946 39.9391 29.0559 41.0827C30.0259 42.2349 31.4711 44.8382 30.6104 47.0704C30.4201 47.5611 30.5846 48.092 31.0303 48.3727C33.4823 49.9178 32.9641 53.5829 31.5092 54.8242C35.313 58.947 30.4729 63.5872 30.4729 63.5872C30.4729 63.5872 32.1439 70.7454 25.23 68.9134C22.9831 73.8955 15.8948 73.3804 13.9929 69.2564C9.84529 72.2356 2.75825 68.5693 4.48703 64.7894C-1.50601 63.1857 2.41323 57.0003 2.41323 57.0003C2.41323 57.0003 -2.19605 54.137 2.64283 48.2946C-1.15976 43.3113 3.33533 39.5315 3.33533 39.5315C3.33533 39.5315 2.18239 32.9458 7.48294 31.5715C6.33001 23.5529 11.6306 22.4069 11.6306 22.4069C11.6306 22.4069 8.86671 15.3061 16.4719 14.1601C17.8544 6.02677 23.6154 7.05808 23.6154 7.05808C23.6154 7.05808 26.0355 0.872668 33.7573 2.41902Z" fill="#3F271B"/>
<path fill-rule="evenodd" clip-rule="evenodd" d="M61.3792 20.2013C61.7252 15.2255 58.6157 13.6815 56.0241 12.4811C54.6423 6.81923 49.632 8.19266 48.5963 9.22121C45.8316 6.47557 41.9159 7.67717 40.879 10.5934C39.8433 13.5097 38.8064 17.2278 43.5283 17.2278C43.5283 17.2278 48.854 16.2687 51.3598 16.8841C53.7441 17.1096 51.3598 21.2311 55.3909 23.8609C55.6621 24.0376 54.8141 24.8907 57.1174 28.894C57.8058 30.0895 57.4401 33.5675 57.8377 33.6687C58.563 33.8551 58.6133 31.0254 59.5373 30.4953C64.1144 27.8642 63.7978 22.2596 61.3792 20.2013Z" fill="#3F271B"/>
<path fill-rule="evenodd" clip-rule="evenodd" d="M40.2473 49.573C37.7781 49.573 36.1607 49.0647 36.0603 49.0318C35.713 48.9202 35.5242 48.5511 35.6351 48.2057C35.7474 47.8615 36.1197 47.6737 36.4657 47.7827C36.5 47.7932 39.8921 48.844 44.2851 47.7696C44.6402 47.6816 44.9967 47.8983 45.0839 48.2503C45.171 48.6023 44.9545 48.9583 44.6006 49.045C42.9871 49.4403 41.5069 49.573 40.2473 49.573Z" fill="#C44343"/>
<path fill-rule="evenodd" clip-rule="evenodd" d="M40.297 53.1235C39.0519 53.1235 38.2372 52.7347 38.1857 52.7097C37.9401 52.5902 37.8398 52.2947 37.9599 52.0504C38.0814 51.8074 38.3745 51.7063 38.6214 51.8245C38.6835 51.856 40.194 52.5548 42.2314 51.7667C42.4849 51.6721 42.7728 51.7929 42.8718 52.0478C42.9708 52.3013 42.8454 52.5863 42.5892 52.6848C41.7376 53.0145 40.9572 53.1235 40.297 53.1235Z" fill="#665454"/>
<path fill-rule="evenodd" clip-rule="evenodd" d="M41.7801 44.5833H38.4811C38.1408 44.5833 37.8645 44.3169 37.8645 43.9886C37.8645 43.6603 38.1408 43.3938 38.4811 43.3938H41.1474L40.9033 34.3747C40.9008 34.2617 40.9316 34.1499 40.9921 34.0523L41.5507 32.9522C41.7258 32.6702 42.1057 32.5798 42.3967 32.7499C42.689 32.9189 42.7827 33.284 42.6064 33.566L42.1402 34.5174L42.3967 43.9731C42.4004 44.1337 42.3375 44.2883 42.2216 44.4037C42.1057 44.5179 41.9466 44.5833 41.7801 44.5833Z" fill="#665454"/>
<ellipse cx="57.6072" cy="45.6774" rx="1.82143" ry="2.45161" fill="#7D7D7D"/>
<path d="M55.7857 45.6775C55.7857 46.3277 55.9776 46.9513 56.3192 47.4111C56.6608 47.8709 57.1241 48.1292 57.6072 48.1292C58.0902 48.1292 58.5535 47.8709 58.8951 47.4111C59.2367 46.9513 59.4286 46.3277 59.4286 45.6775L57.6072 45.6775L55.7857 45.6775Z" fill="#F5F5F5"/>
<ellipse cx="57.6071" cy="45.6774" rx="0.607143" ry="2.45161" fill="#3F271B"/>
</svg>
