<svg width="52" height="83" viewBox="0 0 52 83" fill="none" xmlns="http://www.w3.org/2000/svg">
<path fill-rule="evenodd" clip-rule="evenodd" d="M9.37923 34.8753C9.37923 34.8753 5.97607 24.4537 1.99704 29.2722C-1.98114 34.0907 2.67443 44.6902 7.72841 44.9935C12.7824 45.2968 9.37923 34.8753 9.37923 34.8753Z" fill="#FFC2BD"/>
<path d="M3.55706 32.9833C3.7177 32.0816 4.20116 31.7074 4.93204 32.2564C6.01009 33.0667 6.09938 34.312 5.63731 36.4783L5.5658 36.8019C5.26842 38.1034 5.52558 38.8962 6.32179 39.2561C6.45353 39.3156 6.52871 39.5269 6.4897 39.728C6.45068 39.9291 6.31226 40.0438 6.18051 39.9843C5.13859 39.5133 4.72897 38.3266 5.06529 36.6931L5.16886 36.2219C5.55542 34.4062 5.48477 33.5184 4.71228 32.9378C4.27231 32.6073 4.11845 32.7264 4.03718 33.1826C4.01053 33.3322 3.99909 33.4936 3.99776 33.6374L3.99904 33.815C3.98987 33.9995 3.89328 34.1509 3.76869 34.1645C3.6441 34.1781 3.53439 34.0492 3.50812 33.8685L3.50207 33.7932L3.50139 33.7711C3.49533 33.5343 3.50818 33.2576 3.55706 32.9833Z" fill="#D18888"/>
<path fill-rule="evenodd" clip-rule="evenodd" d="M42.6208 34.8753C42.6208 34.8753 46.0241 24.4537 50.0024 29.2722C53.9816 34.0907 49.3258 44.6902 44.2717 44.9935C39.2175 45.2968 42.6208 34.8753 42.6208 34.8753Z" fill="#FFC2BD"/>
<path d="M47.0681 32.2564C47.799 31.7074 48.2825 32.0816 48.4431 32.9833C48.4822 33.2028 48.4983 33.4237 48.5 33.6246L48.4973 33.8128C48.4876 34.022 48.3685 34.1795 48.2315 34.1645C48.1069 34.1509 48.0103 33.9996 48.0011 33.815L48.0016 33.7415C48.0058 33.5751 47.9963 33.3696 47.963 33.1826C47.8817 32.7264 47.7278 32.6073 47.2879 32.9378C46.5153 33.5184 46.4446 34.4062 46.8312 36.2218L46.9041 36.552C47.2935 38.2587 46.891 39.5 45.8195 39.9843C45.6878 40.0438 45.5493 39.9291 45.5103 39.728C45.4713 39.5269 45.5465 39.3156 45.6782 39.2561C46.4742 38.8963 46.7312 38.1037 46.4342 36.8017C45.8943 34.4345 45.9373 33.1063 47.0681 32.2564Z" fill="#D18888"/>
<path fill-rule="evenodd" clip-rule="evenodd" d="M9.50003 65.7329L9.53645 47.2031C9.55374 38.2495 16.7818 31 25.6928 31C34.3947 31 41.5326 37.925 41.8392 46.6628L42.4897 65.1917C42.8127 74.3692 35.5009 81.989 26.3615 81.9991L25.6746 82C16.7326 82.01 9.48187 74.7194 9.50003 65.7329Z" fill="#FFC2BD"/>
<path fill-rule="evenodd" clip-rule="evenodd" d="M43.4956 33.3385C43.4554 37.1796 43.4162 42.634 42.5959 46.4338C42.0816 48.8147 38.0944 53.8416 33.8505 57.148C31.6555 58.8591 29.1636 59 25.8779 59C23.3348 59 20.3214 58.7285 17.7765 57.5455C13.7865 55.6898 8.38893 48.2857 8.00346 46.6987C7.17313 43.2842 6.45058 38.3278 6.50265 33.7792C6.74472 12.6832 14.9512 9 25.296 9C35.6409 9 43.7149 12.3741 43.4956 33.3385Z" fill="#FFC2BD"/>
<path fill-rule="evenodd" clip-rule="evenodd" d="M43.5 36C43.5169 36.1889 45.009 36.0477 45.0203 35.8588C45.2717 31.5664 45.7857 21.4853 45.2962 18.0832C44.8989 15.3179 42.2476 11.2369 39.0663 7.28767C35.8859 3.33754 33.3674 3.4694 32.5718 5.57632C31.7762 4.39147 26.0773 -1.66559 24.4871 0.441333C22.896 2.54732 17.3299 6.3656 17.3299 6.3656C17.3299 6.3656 16.7998 3.9959 15.2087 6.10282C13.6185 8.20881 9.58321 12.2543 8.05139 14.7914C5.84923 18.4367 6.52334 30.2356 6.89994 35.0087C6.91594 35.2145 7.48023 35.2048 7.5 35C7.7608 32.2983 8.13331 27.7023 9.50884 26.2453C10.9672 24.6658 9.83836 17.5819 11.63 16.7665C14.8114 15.3179 35.0771 14.9233 39.4504 16.8983C41.4153 17.7849 40.8824 24.8575 41.983 26.2453C44.0317 28.832 43.1564 32.2332 43.5 36Z" fill="#91631A"/>
<path d="M14.7462 27.0001L21.7497 27.2966C22.1863 27.3151 22.5217 27.6164 22.4989 27.9697C22.4775 28.3008 22.1488 28.56 21.748 28.5759L21.667 28.5758L14.8264 28.286L12.5657 28.9603C12.1811 29.075 11.7571 28.9329 11.5809 28.6412L11.5491 28.5809C11.4073 28.2698 11.583 27.9267 11.9435 27.7842L12.018 27.7585L14.431 27.0388C14.5065 27.0162 14.5857 27.0032 14.6659 27L14.7462 27.0001Z" fill="#755420"/>
<path d="M38.0988 27.0008C38.1825 26.9976 38.2661 27.0042 38.347 27.0203L38.4267 27.0395L40.9568 27.7589C41.387 27.8813 41.6071 28.2493 41.4485 28.5811C41.2999 28.8921 40.8711 29.0608 40.4636 28.9798L40.3825 28.9603L38.0101 28.2858L30.3709 28.576C29.9416 28.5923 29.5725 28.3541 29.5095 28.0333L29.501 27.9681C29.4799 27.637 29.7888 27.3523 30.2048 27.3037L30.2893 27.2972L38.0988 27.0008Z" fill="#755420"/>
<path d="M17.4996 32C18.6459 32 19.5 32.7742 19.5 33.6894C19.5 33.8609 19.2853 34 19.0204 34C18.7556 34 18.5409 33.8609 18.5409 33.6894C18.5409 33.0812 18.0335 32.6213 17.4996 32.6213C16.9664 32.6213 16.4591 33.0813 16.4591 33.6894C16.4591 33.8609 16.2444 34 15.9796 34C15.7147 34 15.5 33.8609 15.5 33.6894C15.5 32.7744 16.3539 32 17.4996 32Z" fill="#755420"/>
<path d="M34.0005 32C35.4326 32 36.5 32.7744 36.5 33.6894C36.5 33.8609 36.2316 34 35.9005 34C35.5695 34 35.3011 33.8609 35.3011 33.6894C35.3011 33.0813 34.667 32.6213 34.0005 32.6213C33.3331 32.6213 32.6989 33.0812 32.6989 33.6894C32.6989 33.8609 32.4305 34 32.0995 34C31.7684 34 31.5 33.8609 31.5 33.6894C31.5 32.7742 32.5676 32 34.0005 32Z" fill="#755420"/>
<path fill-rule="evenodd" clip-rule="evenodd" d="M8.5 38C8.5 38 13.2216 40.6042 15.7232 44.9311C18.5221 40.0816 22.6385 38.5489 22.6385 38.5489C22.6385 38.5489 24.9436 40.768 27.0013 41.1336C27.6969 40.2064 29.8002 38.4807 29.8002 38.4807C29.8002 38.4807 35.0622 40.65 37.7032 44.9769C38.8154 41.8863 43.3835 38.5489 43.3835 38.5489C43.3835 38.5489 43.951 42.8622 42.5809 47.4017C40.903 52.963 35.8305 59 27.5776 59C17.802 59 11.3051 54.4244 9.77622 47.4699C9.42274 45.2918 8.5 39.716 8.5 38Z" fill="#755420" fill-opacity="0.2"/>
<path d="M40.8667 52.1445C40.981 51.9872 41.2003 51.953 41.3565 52.0681C41.5127 52.1832 41.5466 52.4039 41.4324 52.5612C39.2142 55.6132 36.4741 57.7887 33.1435 58.5896C28.6519 59.2019 24.7763 59.0868 21.6154 58.5233C21.1179 58.4347 20.6749 58.3404 20.288 58.2451L20.0992 58.1975C19.8387 58.1299 19.6599 58.0766 19.5622 58.0438L19.383 57.9776C19.2835 57.9393 19.1579 57.8889 19.0086 57.8261C18.5765 57.6445 18.0959 57.4208 17.5788 57.1529C16.1031 56.3883 14.6277 55.422 13.2496 54.2364C12.6675 53.7356 12.1142 53.2045 11.594 52.6423C11.4621 52.4997 11.47 52.2764 11.6116 52.1436C11.7532 52.0108 11.975 52.0187 12.1069 52.1613C12.6085 52.7035 13.1426 53.2161 13.7049 53.6999C15.0389 54.8476 16.4694 55.7845 17.8995 56.5254C18.3995 56.7845 18.8633 57.0003 19.2787 57.1749L19.5553 57.288C19.6594 57.3292 19.7377 57.3583 19.7872 57.3755L19.935 57.4212C20.0211 57.4464 20.1343 57.4779 20.274 57.5141C20.6864 57.621 21.1751 57.7282 21.7376 57.8285C24.8291 58.3796 28.632 58.4925 33.0149 57.8968C36.1262 57.1469 38.7382 55.0732 40.8667 52.1445Z" fill="#D18888"/>
<path d="M23.7342 29.0141C23.8924 28.9645 24.0566 29.05 24.1245 29.2082L24.1435 29.2636L24.8895 32.128C24.9073 32.1965 24.9064 32.2693 24.8868 32.3372L24.6104 33.3157C24.4029 34.0594 24.1954 34.8214 24.0018 35.5581L23.8617 36.0969L23.6344 36.9991C23.443 37.7779 23.2997 38.4197 23.2147 38.8907L23.1939 39.0063L26.3085 41.2033L28.9881 39.2875C29.1242 39.1901 29.3014 39.2168 29.4093 39.3419L29.4462 39.3934C29.535 39.5428 29.5107 39.7372 29.3966 39.8556L29.3497 39.8961L26.4911 41.941C26.3975 42.008 26.2806 42.018 26.18 41.9707L26.1313 41.9423L22.652 39.4876C22.5421 39.41 22.484 39.2687 22.5038 39.1269C22.5899 38.5121 22.8197 37.4876 23.1595 36.1532L23.3656 35.3568C23.5603 34.6159 23.7688 33.8502 23.9773 33.103L24.2256 32.2222L23.5068 29.4632C23.4616 29.2896 23.5395 29.1093 23.6837 29.0348L23.7342 29.0141Z" fill="#D18888"/>
<path fill-rule="evenodd" clip-rule="evenodd" d="M32.5 43.259C26.3363 43.4035 20.5 43 20.5 43C20.5 43 21.9328 46 26.5117 46C31.0916 46 32.5 43.259 32.5 43.259Z" fill="white"/>
<path d="M19.5434 42.8772C19.7483 43.4191 20.1952 44.1907 20.9488 44.9583C22.2006 46.2332 23.8796 47 26.0115 47C28.1323 47 29.8003 46.3021 31.0441 45.1371C31.7983 44.4307 32.2456 43.7174 32.4507 43.213C32.6259 42.782 32.3121 42.3077 31.8606 42.3211C29.231 42.399 26.4913 42.3559 23.8241 42.2312L22.8277 42.1807C22.4186 42.1584 22.0304 42.1351 21.6656 42.1115L20.7389 42.0471L20.174 42.0024C19.7157 41.9623 19.3759 42.4338 19.5434 42.8772ZM21.3319 43.4766L21.2562 43.3723L22.1582 43.4301C22.3541 43.4418 22.5556 43.4533 22.7623 43.4646L23.7691 43.5156C25.7904 43.6101 27.8532 43.6582 29.8817 43.6431L30.7217 43.6318L30.6913 43.6717C30.548 43.846 30.3881 44.0178 30.2109 44.1837C29.1902 45.1397 27.8168 45.7143 26.0115 45.7143C24.2182 45.7143 22.8473 45.0883 21.8199 44.0418C21.6402 43.8588 21.4777 43.6693 21.3319 43.4766Z" fill="#D18888"/>
<path d="M26.5 55C26.9971 55 27.4094 55.116 27.4869 55.2679L27.5 55.3198V58.6802C27.5 58.8568 27.0523 59 26.5 59C26.0029 59 25.5906 58.884 25.5131 58.7321L25.5 58.6802V55.3198C25.5 55.1432 25.9477 55 26.5 55Z" fill="#D18888"/>
<path fill-rule="evenodd" clip-rule="evenodd" d="M22.4862 53.164C22.3954 53.7088 21.8809 54.077 21.336 53.9862C20.7912 53.8954 20.423 53.3809 20.5138 52.836C20.6046 52.2912 21.1191 51.923 21.664 52.0138C22.2088 52.1046 22.577 52.6191 22.4862 53.164Z" fill="#D18888"/>
<path fill-rule="evenodd" clip-rule="evenodd" d="M34.4931 49.1639C34.4477 49.7088 34.1903 50.077 33.9178 49.9862C33.6466 49.8954 33.4624 49.3809 33.5065 48.836C33.552 48.2912 33.8093 47.923 34.0818 48.0138C34.3543 48.1046 34.5385 48.6191 34.4931 49.1639Z" fill="#D18888"/>
<path fill-rule="evenodd" clip-rule="evenodd" d="M19.4931 51.582C19.4477 51.8544 19.1903 52.0385 18.9178 51.9931C18.6453 51.9477 18.4624 51.6904 18.5066 51.418C18.552 51.1456 18.8094 50.9615 19.0819 51.0069C19.3543 51.0523 19.5385 51.3096 19.4931 51.582Z" fill="#D18888"/>
<path d="M32.588 41.1385C32.7241 40.9771 32.9692 40.9533 33.1354 41.0854L33.2783 41.2015C33.39 41.2934 33.5143 41.3978 33.648 41.5129C34.0301 41.8416 34.4123 42.1906 34.77 42.5454C35.064 42.8371 35.329 43.1207 35.5581 43.3925L35.7397 43.6147C36.5184 44.5997 36.7669 45.3813 36.1635 45.9041C36.0032 46.043 35.7572 46.0294 35.6142 45.8738C35.4855 45.7337 35.4839 45.5262 35.6018 45.3849L35.6455 45.3404C35.823 45.1866 35.6155 44.6534 34.956 43.8709C34.7427 43.6179 34.4929 43.3506 34.2139 43.0739C33.8703 42.733 33.5012 42.396 33.1319 42.0783L32.8868 41.8703L32.6427 41.6701C32.4764 41.5379 32.4519 41.2999 32.588 41.1385Z" fill="#D18888"/>
<path d="M19.943 41.095C20.0845 40.9532 20.2975 40.9723 20.4188 41.1378C20.54 41.3032 20.5237 41.5522 20.3822 41.694L20.2147 41.8677C20.1613 41.9244 20.0998 41.9906 20.0317 42.0654C19.7665 42.3565 19.5013 42.6677 19.2546 42.9855C19.0088 43.3022 18.7953 43.6079 18.6236 43.8946C18.2087 44.5875 18.0994 45.0578 18.2514 45.271L18.2809 45.306C18.4224 45.4478 18.4388 45.6968 18.3175 45.8622C18.1963 46.0276 17.9833 46.0468 17.8418 45.9051C17.2785 45.3408 17.4509 44.4773 18.0708 43.4421C18.2604 43.1256 18.4913 42.7949 18.7549 42.4554C19.0147 42.1206 19.2923 41.7948 19.5698 41.4902L19.8167 41.2249C19.8678 41.1713 19.9104 41.1276 19.943 41.095Z" fill="#D18888"/>
<path fill-rule="evenodd" clip-rule="evenodd" d="M3 70.1704L8.27066 61.0584L18.332 62.8848L25.4649 79.1134L33.2023 63.7131L43.2417 61L47 70.3457C47 70.3457 43.4624 83 25.5821 83C7.69907 83 3 70.1704 3 70.1704Z" fill="#597EF7"/>
<path d="M4.60986 70.0979C4.7481 69.9592 4.9632 69.9691 5.09033 70.1198L5.24665 70.2958C5.28337 70.336 5.3254 70.3814 5.37269 70.4317C5.61153 70.6858 5.89517 70.9697 6.22235 71.2758C7.15947 72.1528 8.2556 73.0305 9.5004 73.8499C10.9806 74.8243 12.573 75.6494 14.2693 76.278C14.4471 76.3438 14.5422 76.5545 14.4818 76.7484C14.4214 76.9423 14.2283 77.0461 14.0505 76.9802C12.306 76.3338 10.6695 75.4858 9.14896 74.4849C7.87039 73.6433 6.74406 72.7414 5.77948 71.8387C5.50875 71.5853 5.26625 71.3462 5.05259 71.125L4.76289 70.8171C4.68365 70.7305 4.62582 70.6646 4.58975 70.6219C4.46263 70.4711 4.47163 70.2365 4.60986 70.0979Z" fill="#253368"/>
<path d="M46.1104 68.7606C46.2656 68.8849 46.3136 69.1212 46.2176 69.2883L45.9836 69.687C45.7957 70.0032 45.5813 70.3569 45.3442 70.7396C44.6667 71.8331 43.9419 72.9405 43.1987 73.9945C42.7291 74.6604 42.2665 75.2842 41.8147 75.8564C40.4354 77.6034 39.2217 78.7953 38.2146 79.2855C38.0522 79.3646 37.8529 79.2724 37.7694 79.0797C37.686 78.887 37.7499 78.6667 37.9123 78.5877C38.8187 78.1465 39.9807 77.0053 41.3068 75.3257C41.7509 74.7632 42.2066 74.1487 42.6698 73.4919C43.4047 72.4497 44.1225 71.353 44.7935 70.27L45.0642 69.8296C45.1506 69.6878 45.2332 69.5512 45.3117 69.4202L45.6553 68.838C45.7514 68.6709 45.9551 68.6363 46.1104 68.7606Z" fill="#253368"/>
</svg>
