<svg width="566" height="316" viewBox="0 0 566 316" fill="none" xmlns="http://www.w3.org/2000/svg">
<g clip-path="url(#clip0_154_173512)" filter="url(#filter0_d_154_173512)">
<g filter="url(#filter1_ddd_154_173512)">
<path fill-rule="evenodd" clip-rule="evenodd" d="M390.606 52.2095H124.351V28.3016C124.351 23.1155 128.547 18.9106 133.722 18.9106H381.235C386.41 18.9106 390.606 23.1155 390.606 28.3016V52.2095Z" fill="#121212"/>
<path fill-rule="evenodd" clip-rule="evenodd" d="M381.235 282.405H133.722C128.547 282.405 124.351 278.201 124.351 273.014V49.4092H390.606V273.014C390.606 278.201 386.41 282.405 381.235 282.405Z" fill="#F5F5F5"/>
<path fill-rule="evenodd" clip-rule="evenodd" d="M145.989 34.4072C145.989 37.6619 143.356 40.3008 140.107 40.3008C136.86 40.3008 134.227 37.6619 134.227 34.4072C134.227 31.1524 136.86 28.5135 140.107 28.5135C143.356 28.5135 145.989 31.1524 145.989 34.4072Z" fill="#F5F5F5"/>
<path fill-rule="evenodd" clip-rule="evenodd" d="M167.952 34.4072C167.952 37.6619 165.319 40.3008 162.071 40.3008C158.823 40.3008 156.19 37.6619 156.19 34.4072C156.19 31.1524 158.823 28.5135 162.071 28.5135C165.319 28.5135 167.952 31.1524 167.952 34.4072Z" fill="#7D7D7D"/>
<path fill-rule="evenodd" clip-rule="evenodd" d="M189.916 34.4072C189.916 37.6619 187.283 40.3008 184.035 40.3008C180.787 40.3008 178.154 37.6619 178.154 34.4072C178.154 31.1524 180.787 28.5135 184.035 28.5135C187.283 28.5135 189.916 31.1524 189.916 34.4072Z" fill="#7D7D7D"/>
<path fill-rule="evenodd" clip-rule="evenodd" d="M153.129 250.713C151.514 250.713 150.205 249.402 150.205 247.785V78.0404C150.205 76.4233 151.514 75.1123 153.129 75.1123H364.738C366.353 75.1123 367.662 76.4233 367.662 78.0404V247.785C367.662 249.402 366.353 250.713 364.738 250.713H153.129Z" fill="#D9D9D9"/>
<rect x="163" y="168" width="44" height="35" rx="2" fill="#7D7D7D"/>
<rect x="214" y="168" width="43" height="35" rx="2" fill="#FF7875"/>
<rect x="264" y="168" width="43" height="35" rx="2" fill="#7D7D7D"/>
<rect x="314" y="168" width="44" height="35" rx="2" fill="#7D7D7D"/>
<rect x="163" y="210" width="44" height="35" rx="2" fill="#7D7D7D"/>
<rect x="214" y="210" width="43" height="35" rx="2" fill="#7D7D7D"/>
<rect x="264" y="210" width="43" height="35" rx="2" fill="#7D7D7D"/>
<rect x="314" y="210" width="44" height="35" rx="2" fill="#7D7D7D"/>
<rect x="163" y="84" width="44" height="35" rx="2" fill="#7D7D7D"/>
<rect x="163" y="126" width="44" height="35" rx="2" fill="#7D7D7D"/>
<rect x="214" y="84" width="43" height="35" rx="2" fill="#7D7D7D"/>
<rect x="214" y="126" width="43" height="35" rx="2" fill="#7D7D7D"/>
<rect x="265" y="84" width="43" height="35" rx="2" fill="#7D7D7D"/>
<rect x="265" y="126" width="43" height="35" rx="2" fill="#FF7875"/>
<rect x="315" y="84" width="44" height="35" rx="2" fill="#7D7D7D"/>
<rect x="315" y="126" width="44" height="35" rx="2" fill="#7D7D7D"/>
</g>
<path fill-rule="evenodd" clip-rule="evenodd" d="M456.381 202.99C455.869 202.99 455.364 203.019 454.867 203.073C454.867 203.045 454.868 203.018 454.868 202.99C454.868 187.839 442.586 175.557 427.435 175.557C416.202 175.557 406.547 182.31 402.305 191.977C401.229 191.792 400.123 191.694 398.994 191.694C388.299 191.694 379.629 200.364 379.629 211.058C379.629 221.753 388.299 230.423 398.994 230.423H456.381C463.957 230.423 470.098 224.282 470.098 216.706C470.098 209.131 463.957 202.99 456.381 202.99Z" fill="#121212"/>
<path fill-rule="evenodd" clip-rule="evenodd" d="M346.644 247.384C347.518 247.384 348.38 247.433 349.228 247.527C349.228 247.479 349.226 247.431 349.226 247.384C349.226 221.523 370.191 200.559 396.051 200.559C415.225 200.559 431.705 212.086 438.946 228.586C440.783 228.27 442.671 228.103 444.598 228.103C462.852 228.103 477.65 242.901 477.65 261.156C477.65 279.41 462.852 294.209 444.598 294.209H346.644C333.714 294.209 323.232 283.727 323.232 270.796C323.232 257.866 333.714 247.384 346.644 247.384Z" fill="#595959"/>
<path fill-rule="evenodd" clip-rule="evenodd" d="M53.9576 233.183L49.7946 229.02L83.1042 195.71L87.2672 199.873L53.9576 233.183Z" fill="#7D7D7D"/>
<path fill-rule="evenodd" clip-rule="evenodd" d="M117.477 203.033C96.7481 203.033 79.9443 186.229 79.9443 165.5C79.9443 144.771 96.7481 127.967 117.477 127.967C138.206 127.967 155.01 144.771 155.01 165.5C155.01 186.229 138.206 203.033 117.477 203.033ZM117.477 115.456C89.8386 115.456 67.4333 137.862 67.4333 165.5C67.4333 193.138 89.8386 215.544 117.477 215.544C145.115 215.544 167.521 193.138 167.521 165.5C167.521 137.862 145.115 115.456 117.477 115.456Z" fill="#121212"/>
<path fill-rule="evenodd" clip-rule="evenodd" d="M90.9443 165.5C90.9443 150.847 102.823 138.968 117.477 138.968C132.131 138.968 144.01 150.847 144.01 165.5C144.01 180.154 132.131 192.033 117.477 192.033C102.823 192.033 90.9443 180.154 90.9443 165.5Z" fill="#F5222D"/>
<path fill-rule="evenodd" clip-rule="evenodd" d="M117.477 180.219C109.348 180.219 102.758 173.629 102.758 165.5C102.758 157.371 109.348 150.781 117.477 150.781C125.606 150.781 132.196 157.371 132.196 165.5C132.196 173.629 125.606 180.219 117.477 180.219Z" fill="#F5F5F5"/>
<path fill-rule="evenodd" clip-rule="evenodd" d="M37.8237 249.317L33.6607 245.153C32.5112 244.004 32.5112 242.14 33.6608 240.99L62.9083 211.743C64.0579 210.593 65.9218 210.593 67.0714 211.743C67.0714 211.743 67.0714 211.743 67.0714 211.743L71.2345 215.906C72.3841 217.055 72.3841 218.919 71.2345 220.069L41.9868 249.317C40.8372 250.466 38.9733 250.466 37.8237 249.317C37.8237 249.317 37.8237 249.317 37.8237 249.317Z" fill="#121212"/>
</g>
<defs>
<filter id="filter0_d_154_173512" x="-8" y="0" width="582" height="316" filterUnits="userSpaceOnUse" color-interpolation-filters="sRGB">
<feFlood flood-opacity="0" result="BackgroundImageFix"/>
<feColorMatrix in="SourceAlpha" type="matrix" values="0 0 0 0 0 0 0 0 0 0 0 0 0 0 0 0 0 0 127 0" result="hardAlpha"/>
<feOffset dy="2"/>
<feGaussianBlur stdDeviation="4"/>
<feColorMatrix type="matrix" values="0 0 0 0 0 0 0 0 0 0 0 0 0 0 0 0 0 0 0.15 0"/>
<feBlend mode="normal" in2="BackgroundImageFix" result="effect1_dropShadow_154_173512"/>
<feBlend mode="normal" in="SourceGraphic" in2="effect1_dropShadow_154_173512" result="shape"/>
</filter>
<filter id="filter1_ddd_154_173512" x="72" y="-26" width="371" height="371" filterUnits="userSpaceOnUse" color-interpolation-filters="sRGB">
<feFlood flood-opacity="0" result="BackgroundImageFix"/>
<feColorMatrix in="SourceAlpha" type="matrix" values="0 0 0 0 0 0 0 0 0 0 0 0 0 0 0 0 0 0 127 0" result="hardAlpha"/>
<feMorphology radius="8" operator="dilate" in="SourceAlpha" result="effect1_dropShadow_154_173512"/>
<feOffset dy="9"/>
<feGaussianBlur stdDeviation="14"/>
<feColorMatrix type="matrix" values="0 0 0 0 0 0 0 0 0 0 0 0 0 0 0 0 0 0 0.05 0"/>
<feBlend mode="normal" in2="BackgroundImageFix" result="effect1_dropShadow_154_173512"/>
<feColorMatrix in="SourceAlpha" type="matrix" values="0 0 0 0 0 0 0 0 0 0 0 0 0 0 0 0 0 0 127 0" result="hardAlpha"/>
<feOffset dy="6"/>
<feGaussianBlur stdDeviation="8"/>
<feColorMatrix type="matrix" values="0 0 0 0 0 0 0 0 0 0 0 0 0 0 0 0 0 0 0.08 0"/>
<feBlend mode="normal" in2="effect1_dropShadow_154_173512" result="effect2_dropShadow_154_173512"/>
<feColorMatrix in="SourceAlpha" type="matrix" values="0 0 0 0 0 0 0 0 0 0 0 0 0 0 0 0 0 0 127 0" result="hardAlpha"/>
<feMorphology radius="4" operator="erode" in="SourceAlpha" result="effect3_dropShadow_154_173512"/>
<feOffset dy="3"/>
<feGaussianBlur stdDeviation="3"/>
<feColorMatrix type="matrix" values="0 0 0 0 0 0 0 0 0 0 0 0 0 0 0 0 0 0 0.12 0"/>
<feBlend mode="normal" in2="effect2_dropShadow_154_173512" result="effect3_dropShadow_154_173512"/>
<feBlend mode="normal" in="SourceGraphic" in2="effect3_dropShadow_154_173512" result="shape"/>
</filter>
<clipPath id="clip0_154_173512">
<rect width="566" height="300" fill="white" transform="translate(0 6)"/>
</clipPath>
</defs>
</svg>
