<svg width="542" height="378" viewBox="0 0 542 378" fill="none" xmlns="http://www.w3.org/2000/svg">
<g clip-path="url(#clip0_157_173400)" filter="url(#filter0_d_157_173400)">
<path fill-rule="evenodd" clip-rule="evenodd" d="M387.589 67.2302H73.6201V45.0212C73.6201 40.2036 77.4437 36.2976 82.1597 36.2976H379.05C383.766 36.2976 387.589 40.2036 387.589 45.0212V67.2302Z" fill="#121212"/>
<path fill-rule="evenodd" clip-rule="evenodd" d="M95.6359 50.8208C95.6359 53.8442 93.2512 56.2956 90.3095 56.2956C87.3683 56.2956 84.9839 53.8442 84.9839 50.8208C84.9839 47.7973 87.3683 45.3459 90.3095 45.3459C93.2512 45.3459 95.6359 47.7973 95.6359 50.8208Z" fill="#F5F5F5"/>
<path fill-rule="evenodd" clip-rule="evenodd" d="M115.522 50.8208C115.522 53.8442 113.137 56.2956 110.196 56.2956C107.254 56.2956 104.87 53.8442 104.87 50.8208C104.87 47.7973 107.254 45.3459 110.196 45.3459C113.137 45.3459 115.522 47.7973 115.522 50.8208Z" fill="#7D7D7D"/>
<path fill-rule="evenodd" clip-rule="evenodd" d="M135.408 50.8208C135.408 53.8442 133.023 56.2956 130.082 56.2956C127.14 56.2956 124.756 53.8442 124.756 50.8208C124.756 47.7973 127.14 45.3459 130.082 45.3459C133.023 45.3459 135.408 47.7973 135.408 50.8208Z" fill="#7D7D7D"/>
<path fill-rule="evenodd" clip-rule="evenodd" d="M82.8269 272.76C77.5683 272.76 73.3047 268.978 73.3047 264.312V63.1661H387.695V264.312C387.695 268.978 383.432 272.76 378.173 272.76H82.8269Z" fill="#F5F5F5"/>
<path d="M362.646 82.9926H166.33C164.228 82.9926 162.524 84.6969 162.524 86.7992V124.503C162.524 126.606 164.228 128.31 166.33 128.31H362.646C364.748 128.31 366.453 126.606 366.453 124.503V86.7992C366.453 84.6969 364.748 82.9926 362.646 82.9926Z" fill="#F5F5F5"/>
<path d="M293.52 111.316H184.474C183.301 111.316 182.35 112.267 182.35 113.44C182.35 114.613 183.301 115.565 184.474 115.565H293.52C294.693 115.565 295.644 114.613 295.644 113.44C295.644 112.267 294.693 111.316 293.52 111.316Z" fill="#BFBFBF"/>
<path d="M333.173 97.1543H184.474C183.301 97.1543 182.35 98.1054 182.35 99.2786C182.35 100.452 183.301 101.403 184.474 101.403H333.173C334.346 101.403 335.297 100.452 335.297 99.2786C335.297 98.1054 334.346 97.1543 333.173 97.1543Z" fill="#BFBFBF"/>
<path d="M362.646 145.304H166.33C164.228 145.304 162.524 147.009 162.524 149.111V186.815C162.524 188.917 164.228 190.622 166.33 190.622H362.646C364.748 190.622 366.453 188.917 366.453 186.815V149.111C366.453 147.009 364.748 145.304 362.646 145.304Z" fill="#FFA39E"/>
<path d="M293.52 173.628H184.474C183.301 173.628 182.35 174.579 182.35 175.752C182.35 176.925 183.301 177.876 184.474 177.876H293.52C294.693 177.876 295.644 176.925 295.644 175.752C295.644 174.579 294.693 173.628 293.52 173.628Z" fill="white"/>
<path d="M333.173 159.466H184.474C183.301 159.466 182.35 160.417 182.35 161.59C182.35 162.763 183.301 163.714 184.474 163.714H333.173C334.346 163.714 335.297 162.763 335.297 161.59C335.297 160.417 334.346 159.466 333.173 159.466Z" fill="white"/>
<path d="M362.646 207.616H166.33C164.228 207.616 162.524 209.32 162.524 211.423V249.127C162.524 251.229 164.228 252.933 166.33 252.933H362.646C364.748 252.933 366.453 251.229 366.453 249.127V211.423C366.453 209.32 364.748 207.616 362.646 207.616Z" fill="white"/>
<path d="M293.52 235.939H184.474C183.301 235.939 182.35 236.89 182.35 238.064C182.35 239.237 183.301 240.188 184.474 240.188H293.52C294.693 240.188 295.644 239.237 295.644 238.064C295.644 236.89 294.693 235.939 293.52 235.939Z" fill="#BFBFBF"/>
<path d="M333.173 221.778H184.474C183.301 221.778 182.35 222.729 182.35 223.902C182.35 225.075 183.301 226.026 184.474 226.026H333.173C334.346 226.026 335.297 225.075 335.297 223.902C335.297 222.729 334.346 221.778 333.173 221.778Z" fill="#BFBFBF"/>
<path d="M144.555 82.9926H101.186C99.0839 82.9926 97.3796 84.6969 97.3796 86.7992V124.503C97.3796 126.606 99.0839 128.31 101.186 128.31H144.555C146.658 128.31 148.362 126.606 148.362 124.503V86.7992C148.362 84.6969 146.658 82.9926 144.555 82.9926Z" fill="#BFBFBF"/>
<path d="M144.555 145.304H101.186C99.0839 145.304 97.3796 147.009 97.3796 149.111V186.815C97.3796 188.917 99.0839 190.622 101.186 190.622H144.555C146.658 190.622 148.362 188.917 148.362 186.815V149.111C148.362 147.009 146.658 145.304 144.555 145.304Z" fill="#FFA39E"/>
<path d="M144.555 207.616H101.186C99.0839 207.616 97.3796 209.32 97.3796 211.423V249.127C97.3796 251.229 99.0839 252.933 101.186 252.933H144.555C146.658 252.933 148.362 251.229 148.362 249.127V211.423C148.362 209.32 146.658 207.616 144.555 207.616Z" fill="#BFBFBF"/>
<path fill-rule="evenodd" clip-rule="evenodd" d="M29.0044 104.361H19.2384C18.0073 104.361 17 103.353 17 102.122V92.2386C17 91.0074 18.0073 90 19.2384 90H29.0044C30.2356 90 31.243 91.0074 31.243 92.2386V102.122C31.243 103.353 30.2356 104.361 29.0044 104.361Z" fill="#7D7D7D"/>
<path fill-rule="evenodd" clip-rule="evenodd" d="M437.691 111.523C432.911 111.523 429 107.613 429 102.833V64.6906C429 59.9108 432.911 56 437.691 56H475.833C480.613 56 484.523 59.9108 484.523 64.6906V102.833C484.523 107.613 480.613 111.523 475.833 111.523H437.691Z" fill="#FAFAFA"/>
<path fill-rule="evenodd" clip-rule="evenodd" d="M46.9606 283.409C46.9606 283.409 45.5348 272.003 60.9332 266.87C76.3317 261.737 79.7536 264.446 79.7536 264.446L78.3278 269.008C78.3278 269.008 75.9039 280.415 64.7829 281.983C53.6618 283.551 49.3844 281.27 46.9606 283.409Z" fill="#7D7D7D"/>
<path fill-rule="evenodd" clip-rule="evenodd" d="M77.9 291.108H79.7535V264.446H77.9L78.3995 272.638C78.5416 274.969 78.5572 277.306 78.4462 279.639L77.9 291.108Z" fill="#7D7D7D"/>
<path fill-rule="evenodd" clip-rule="evenodd" d="M49.3529 244.371C49.3529 244.371 55.0282 235.741 68.5492 241.209C82.07 246.677 82.7477 251.044 82.7477 251.044L79.1954 252.813C79.1954 252.813 70.888 259.198 62.3697 253.787C53.8515 248.375 52.2571 244.322 49.3529 244.371Z" fill="#F5F5F5"/>
<path fill-rule="evenodd" clip-rule="evenodd" d="M80.8942 298.522H82.3199L82.8786 251.456C82.8854 250.876 82.503 250.363 81.9448 250.203L80.8942 249.903C80.8942 249.903 81.2522 254.276 81.1793 259.741C81.1096 264.968 80.609 271.189 80.609 275.796C80.609 288.827 80.8942 298.522 80.8942 298.522Z" fill="#7D7D7D"/>
<path fill-rule="evenodd" clip-rule="evenodd" d="M68.6325 244.057C74.7853 248.833 81.0368 251.899 81.0368 251.899L79.1954 252.813C79.1954 252.813 70.888 259.198 62.3697 253.787C53.8515 248.375 52.2571 244.322 49.3529 244.371C49.3529 244.371 59.0797 236.643 68.6325 244.057Z" fill="#7D7D7D"/>
<path fill-rule="evenodd" clip-rule="evenodd" d="M116.076 264.784C116.076 264.784 112.248 258.991 103.127 262.662C94.006 266.332 93.5488 269.263 93.5488 269.263L95.9451 270.45C95.9451 270.45 101.549 274.736 107.295 271.104C113.042 267.472 114.117 264.751 116.076 264.784Z" fill="#7D7D7D"/>
<path fill-rule="evenodd" clip-rule="evenodd" d="M93.7923 301.365L93.4063 269.62C93.4016 269.229 93.6658 268.882 94.0515 268.775L94.7776 268.572C94.7776 268.572 94.5302 271.522 94.5805 275.208C94.6287 278.734 94.9746 282.929 94.9746 286.037C94.9746 294.826 94.7776 301.365 94.7776 301.365H93.7923Z" fill="#7D7D7D"/>
<path fill-rule="evenodd" clip-rule="evenodd" d="M117.141 233.392C117.141 233.392 111.465 224.762 97.9442 230.23C84.4234 235.699 83.7457 240.065 83.7457 240.065L87.2981 241.834C87.2981 241.834 95.6054 248.22 104.124 242.808C112.642 237.397 114.236 233.343 117.141 233.392Z" fill="#F5F5F5"/>
<path fill-rule="evenodd" clip-rule="evenodd" d="M85.5992 289.397H84.1735L83.6148 240.478C83.608 239.898 83.9904 239.384 84.5486 239.225L85.5992 238.924C85.5992 238.924 85.2412 243.298 85.3141 248.762C85.3838 253.99 85.8844 260.21 85.8844 264.817C85.8844 277.848 85.5992 289.397 85.5992 289.397Z" fill="#7D7D7D"/>
<path fill-rule="evenodd" clip-rule="evenodd" d="M117.141 233.392C117.141 233.392 107.414 225.665 97.861 233.079C91.7081 237.854 85.4567 240.921 85.4567 240.921L87.2981 241.834C87.2981 241.834 95.6054 248.22 104.124 242.808C112.642 237.397 114.236 233.343 117.141 233.392Z" fill="#7D7D7D"/>
<path fill-rule="evenodd" clip-rule="evenodd" d="M88.1656 288.969H90.5895L91.5482 258.669L89.7223 230.07C89.7292 229.489 89.3468 228.976 88.7886 228.816L87.7379 228.516C87.7379 228.516 90.0192 251.228 90.0192 255.835C90.0192 268.866 88.1656 288.969 88.1656 288.969Z" fill="#7D7D7D"/>
<path fill-rule="evenodd" clip-rule="evenodd" d="M60.8895 212.515C60.8895 212.515 66.0661 204.848 78.3278 212.547C90.6795 220.303 89.8219 230.477 89.8219 230.477L85.8748 230.888C85.8748 230.888 75.8554 233.954 69.7766 225.898C63.6977 217.843 63.6263 213.487 60.8895 212.515Z" fill="#D9D9D9"/>
<path fill-rule="evenodd" clip-rule="evenodd" d="M60.8895 212.515C60.8895 212.515 66.4621 208.407 71.1989 214.258C73.6228 217.253 77.9109 219.51 79.7536 221.245C84.5404 225.752 87.9196 230.678 87.9196 230.678L85.8748 230.888C85.8748 230.888 75.8554 233.954 69.7766 225.898C63.6977 217.843 63.6263 213.487 60.8895 212.515Z" fill="#7D7D7D"/>
<path fill-rule="evenodd" clip-rule="evenodd" d="M101.676 328.891H68.5977C66.7078 328.891 65.1758 327.359 65.1758 325.469V292.391C65.1758 290.501 66.7078 288.969 68.5977 288.969H101.676C103.566 288.969 105.098 290.501 105.098 292.391V325.469C105.098 327.359 103.566 328.891 101.676 328.891Z" fill="#121212"/>
<path fill-rule="evenodd" clip-rule="evenodd" d="M386.004 29.3605H376.238C375.007 29.3605 374 28.3531 374 27.1221V17.2386C374 16.0074 375.007 15 376.238 15H386.004C387.236 15 388.243 16.0074 388.243 17.2386V27.1221C388.243 28.3531 387.236 29.3605 386.004 29.3605Z" fill="#7D7D7D"/>
<path fill-rule="evenodd" clip-rule="evenodd" d="M464.004 155.361H454.238C453.007 155.361 452 154.353 452 153.122V143.239C452 142.007 453.007 141 454.238 141H464.004C465.236 141 466.243 142.007 466.243 143.239V153.122C466.243 154.353 465.236 155.361 464.004 155.361Z" fill="#7D7D7D"/>
<path fill-rule="evenodd" clip-rule="evenodd" d="M447.833 88.5234H409.691C404.911 88.5234 401 84.6127 401 79.8328V41.6906C401 36.9108 404.911 33 409.691 33H447.833C452.613 33 456.523 36.9108 456.523 41.6906V79.8328C456.523 84.6127 452.613 88.5234 447.833 88.5234Z" fill="#D9D9D9"/>
<path fill-rule="evenodd" clip-rule="evenodd" d="M53.0522 67H26.9478C23.6765 67 21 64.3235 21 61.0522V34.9478C21 31.6765 23.6765 29 26.9478 29H53.0522C56.3235 29 59 31.6765 59 34.9478V61.0522C59 64.3235 56.3235 67 53.0522 67Z" fill="#D9D9D9"/>
<g filter="url(#filter1_ddd_157_173400)">
<path fill-rule="evenodd" clip-rule="evenodd" d="M394.992 137.242C397.424 139.573 401.127 141.735 404.414 141.822C407.963 141.913 411.34 139.948 414.046 137L415.018 148.077C415.559 154.241 410.708 159.543 404.53 159.543C398.352 159.543 393.501 154.241 394.041 148.077L394.992 137.242Z" fill="#CC8A21"/>
<path fill-rule="evenodd" clip-rule="evenodd" d="M393.66 114.929C393.66 114.929 394.35 105.335 393.206 105.158C390.257 104.704 380.954 104.25 377.777 118.792C376.869 122.199 377.773 123.974 374.826 129.471C369.041 140.263 378.911 142.763 378.23 145.944C377.55 149.125 377.777 153.328 382.542 156.509C387.307 159.69 396.156 158.327 396.156 158.327L393.66 114.929Z" fill="#434343"/>
<path fill-rule="evenodd" clip-rule="evenodd" d="M401 155C396.306 155 392.621 150.961 393.031 146.266L394.105 134H407.896L408.969 146.266C409.38 150.961 405.694 155 401 155Z" fill="#EFADAB"/>
<path fill-rule="evenodd" clip-rule="evenodd" d="M408.802 132.553C408.802 119.553 405.652 113.367 395.876 113.367C386.909 113.367 381.833 119.553 382.989 132.548C382.989 132.548 382.989 139.223 387.344 145.186C388.99 147.44 392.734 150.085 395.965 150.17C399.238 150.255 402.324 148.106 404.587 145.097C407.018 141.862 408.802 137.531 408.802 132.553Z" fill="#EFADAB"/>
<path fill-rule="evenodd" clip-rule="evenodd" d="M384.32 133.155C384.32 133.155 382.082 130.966 380.506 132.615C379.143 134.038 380.456 141.079 385.389 141.013L384.32 133.155Z" fill="#EFADAB"/>
<path fill-rule="evenodd" clip-rule="evenodd" d="M378.379 215.903C374.068 215.266 371.089 211.255 371.726 206.943L377.93 164.93C378.567 160.619 382.578 157.64 386.89 158.276C391.201 158.913 394.179 162.924 393.543 167.236L387.338 209.249C386.702 213.561 382.691 216.539 378.379 215.903Z" fill="#FFC2BD"/>
<path fill-rule="evenodd" clip-rule="evenodd" d="M390.912 185.046L393.543 167.236C394.177 162.942 391.183 158.91 386.889 158.276C382.596 157.642 378.565 160.637 377.93 164.93L375.325 182.571L390.912 185.046Z" fill="#FF4D4F"/>
<path d="M387.15 158.075C391.521 158.72 394.584 162.783 394.026 167.148L394.004 167.304L391.373 185.114C391.356 185.23 391.257 185.314 391.144 185.317L391.101 185.314L375.514 182.839C375.384 182.819 375.296 182.697 375.316 182.567C375.335 182.452 375.433 182.369 375.546 182.367L375.588 182.37L390.938 184.807L393.534 167.235C394.141 163.123 391.316 159.258 387.236 158.569L387.08 158.545C386.95 158.526 386.861 158.405 386.88 158.275C386.897 158.16 386.994 158.076 387.107 158.072L387.15 158.075Z" fill="#121212"/>
<path fill-rule="evenodd" clip-rule="evenodd" d="M350.869 202.06C350.807 203.6 351.967 204.916 353.502 205.048L383.144 207.6C385.876 207.744 388.2 205.628 388.31 202.895C388.422 200.137 386.239 197.83 383.479 197.787L353.604 199.297C352.115 199.372 350.929 200.57 350.869 202.06Z" fill="#FFC2BD"/>
<path fill-rule="evenodd" clip-rule="evenodd" d="M347.965 198.157C347.965 198.157 353.289 197.735 354.652 200.574C355.887 203.144 353.471 204.686 353.471 204.686C353.471 204.686 351.312 206.597 348.281 207.642C346.284 208.329 342.353 209.252 341.85 208.251C341.194 206.947 345.704 206.162 345.536 205.114C345.364 204.037 344.42 204.13 342.204 203.636C340.82 203.327 339.333 203.567 338.209 203.082C336.012 202.132 339.926 198.124 347.965 198.157Z" fill="#FFC999"/>
<path d="M338.502 201.661C340.491 201.175 342.29 201.258 343.815 201.69C344.091 201.769 344.335 201.853 344.545 201.937L344.68 201.994C344.739 202.02 344.783 202.041 344.813 202.056C344.958 202.13 345.015 202.308 344.94 202.453C344.866 202.598 344.689 202.655 344.544 202.581L344.44 202.532C344.407 202.518 344.369 202.502 344.324 202.484C344.134 202.407 343.91 202.33 343.654 202.257C342.222 201.851 340.526 201.774 338.642 202.234C338.484 202.273 338.324 202.176 338.285 202.018C338.247 201.86 338.344 201.7 338.502 201.661Z" fill="#DD936F"/>
<path d="M340.845 200.025C342.314 199.784 343.909 199.793 345.451 200.222C345.608 200.265 345.7 200.428 345.656 200.585C345.612 200.741 345.45 200.833 345.293 200.79C343.845 200.387 342.332 200.378 340.941 200.606C340.794 200.63 340.66 200.656 340.538 200.681L340.42 200.707C340.331 200.727 340.27 200.742 340.241 200.75C340.084 200.794 339.921 200.702 339.878 200.545C339.835 200.388 339.926 200.225 340.083 200.182L340.235 200.144L340.291 200.132C340.453 200.095 340.639 200.059 340.845 200.025Z" fill="#DD936F"/>
<path d="M342.34 198.709C343.936 198.529 345.244 198.583 346.263 198.783L346.483 198.829C346.72 198.883 346.888 198.934 346.987 198.974C347.139 199.033 347.213 199.204 347.153 199.356C347.094 199.507 346.923 199.582 346.771 199.522L346.691 199.494C346.579 199.457 346.398 199.41 346.15 199.361C345.189 199.173 343.943 199.122 342.406 199.295C342.244 199.313 342.098 199.197 342.08 199.035C342.062 198.873 342.178 198.727 342.34 198.709Z" fill="#DD936F"/>
<path fill-rule="evenodd" clip-rule="evenodd" d="M335.466 330.964L316.904 259.576C315.567 254.433 318.776 249.21 323.968 248.078C329.159 246.946 334.251 250.36 335.175 255.593L346.95 328.721C347.55 332.117 346.421 334.889 343.051 335.624C339.682 336.358 336.334 334.301 335.466 330.964Z" fill="#FFC2BD"/>
<path fill-rule="evenodd" clip-rule="evenodd" d="M396.702 222.632C393.971 216.998 387.137 214.717 381.57 217.582L321.712 248.376C317.102 250.749 315.227 256.366 317.489 261.032C319.751 265.697 325.322 267.705 330.04 265.555L391.294 237.64C396.991 235.044 399.433 228.266 396.702 222.632Z" fill="#FFC2BD"/>
<path fill-rule="evenodd" clip-rule="evenodd" d="M336.905 336.546L348.406 334.412L345.678 316.101L332.474 318.549L336.905 336.546Z" fill="#FF4D4F"/>
<path d="M345.409 319.513C345.617 319.475 345.818 319.612 345.856 319.821C345.892 320.012 345.779 320.196 345.599 320.255L345.549 320.268L333.359 322.53C333.15 322.569 332.95 322.431 332.911 322.222C332.876 322.031 332.989 321.847 333.168 321.788L333.219 321.775L345.409 319.513Z" fill="#F5F5F5"/>
<path fill-rule="evenodd" clip-rule="evenodd" d="M335.625 336.042L348.27 333.696L353.206 356.74L324.715 362.025L323.985 358.483C323.721 357.179 324.43 355.874 325.666 355.385L332.817 351.758L336.292 348.825C337.34 347.941 337.816 346.559 337.531 345.218C336.917 342.338 335.884 337.453 335.625 336.042Z" fill="#121212"/>
<path fill-rule="evenodd" clip-rule="evenodd" d="M353.071 357.546L324.666 362.815C324.396 362.865 324.138 362.687 324.087 362.417L323.497 359.232C323.447 358.963 323.624 358.705 323.894 358.654L352.299 353.385C352.568 353.335 352.827 353.513 352.877 353.782L353.467 356.968C353.518 357.237 353.34 357.496 353.071 357.546Z" fill="#F5F5F5"/>
<path fill-rule="evenodd" clip-rule="evenodd" d="M323.895 358.654C323.522 356.646 324.661 354.665 326.584 353.977L332.815 351.747L334.169 356.675L323.895 358.654Z" fill="#F5F5F5"/>
<path d="M352.263 353.192C352.369 353.172 352.472 353.242 352.492 353.349C352.509 353.443 352.457 353.533 352.373 353.567L352.334 353.578L323.93 358.847C323.823 358.867 323.721 358.797 323.701 358.69C323.684 358.597 323.736 358.506 323.82 358.472L323.858 358.461L352.263 353.192Z" fill="#121212"/>
<path d="M337.51 344.017L337.626 344.022C337.659 344.024 337.697 344.027 337.739 344.031C337.913 344.045 338.106 344.068 338.314 344.101C338.907 344.196 339.502 344.356 340.06 344.597C340.508 344.791 340.914 345.029 341.268 345.319C341.522 345.525 341.417 345.934 341.096 345.994C340.782 346.052 340.326 346.199 339.769 346.416L339.615 346.477C339.455 346.54 339.29 346.609 339.12 346.681C338.867 346.788 338.612 346.9 338.36 347.014L338.229 347.074L338.262 347.092C338.77 347.375 339.279 347.724 339.764 348.143L339.971 348.327C340.218 348.555 340.074 348.968 339.738 348.993C339.353 349.021 338.912 349.098 338.426 349.218C337.953 349.335 337.45 349.491 336.93 349.675C336.822 349.713 336.714 349.752 336.607 349.792L336.344 349.892L336.424 349.921C336.594 349.988 336.763 350.066 336.928 350.159L337.092 350.256C337.35 350.417 337.591 350.609 337.81 350.835C337.958 350.987 337.954 351.23 337.802 351.378C337.65 351.526 337.407 351.522 337.259 351.37C337.084 351.19 336.892 351.036 336.685 350.907C336.121 350.555 335.546 350.423 335.125 350.413L335.037 350.412L334.985 350.411C334.61 350.376 334.502 349.849 334.863 349.68L335.005 349.616C335.116 349.566 335.244 349.511 335.386 349.451C335.789 349.28 336.224 349.11 336.674 348.951C337.215 348.759 337.742 348.596 338.241 348.473C338.391 348.436 338.538 348.402 338.681 348.372L338.795 348.35L338.682 348.266C338.485 348.126 338.287 347.996 338.088 347.878L337.889 347.764C337.75 347.686 337.619 347.619 337.498 347.561L337.381 347.507C337.292 347.466 337.231 347.441 337.202 347.43C336.886 347.313 336.864 346.874 337.166 346.726L337.533 346.55L337.662 346.49C338.039 346.314 338.432 346.138 338.82 345.974L339.164 345.831C339.22 345.808 339.275 345.785 339.33 345.763L339.656 345.637C339.708 345.617 339.76 345.598 339.81 345.579L340.11 345.473L340.076 345.454L339.919 345.376L339.756 345.302C339.261 345.089 338.727 344.945 338.192 344.859C338.052 344.837 337.919 344.82 337.796 344.807L337.543 344.787C337.521 344.785 337.504 344.785 337.492 344.784C337.279 344.779 337.112 344.603 337.117 344.391C337.122 344.179 337.298 344.012 337.51 344.017Z" fill="#E4EBF7"/>
<path d="M338.237 340.431C337.703 340.477 337.255 340.539 336.926 340.597L336.797 340.621C336.754 340.629 336.713 340.645 336.675 340.667C336.227 340.931 336.012 341.276 336.092 341.663C336.149 341.94 336.34 342.16 336.615 342.354C336.782 342.473 336.945 342.558 337.062 342.608L337.106 342.636L337.511 342.863C337.64 342.934 337.777 343.009 337.923 343.088C338.615 343.462 339.345 343.836 340.077 344.185C340.557 344.414 341.024 344.625 341.471 344.815C342.971 345.449 344.175 345.807 345.012 345.806C346.213 345.806 346.706 345.031 346.225 343.707C345.495 341.699 343.61 340.69 341.015 340.432C340.107 340.342 339.166 340.35 338.237 340.431ZM340.939 341.196C343.21 341.422 344.809 342.252 345.453 343.839L345.503 343.97C345.808 344.809 345.662 345.038 345.012 345.038C344.308 345.039 343.18 344.704 341.77 344.107C341.334 343.923 340.878 343.716 340.408 343.492C339.688 343.149 338.97 342.78 338.288 342.412L337.882 342.19L337.405 341.922C337.293 341.871 337.174 341.809 337.059 341.728C336.929 341.636 336.853 341.548 336.844 341.507L336.844 341.502C336.848 341.486 336.874 341.452 336.968 341.39L337.01 341.362L337.169 341.335C337.465 341.286 337.851 341.235 338.303 341.196C339.189 341.119 340.083 341.111 340.939 341.196Z" fill="#E4EBF7"/>
<path fill-rule="evenodd" clip-rule="evenodd" d="M415.305 229.651C412.247 224.187 405.72 222.071 400.85 224.967L348.495 256.097C344.463 258.494 343.265 264.02 345.796 268.544C348.329 273.069 353.665 274.939 357.818 272.756L411.735 244.42C416.75 241.784 418.362 235.115 415.305 229.651Z" fill="#FFC999"/>
<path fill-rule="evenodd" clip-rule="evenodd" d="M326.582 342.21C323.315 341.107 321.501 337.62 322.474 334.312L343.278 263.545C344.776 258.447 350.214 255.618 355.248 257.318C360.283 259.018 362.893 264.564 360.995 269.526L334.637 338.419C333.405 341.64 329.85 343.314 326.582 342.21Z" fill="#FFC2BD"/>
<path fill-rule="evenodd" clip-rule="evenodd" d="M320.836 339.444L332.637 343.925L340.26 325.164L326.712 320.019L320.836 339.444Z" fill="#FF4D4F"/>
<path d="M324.779 325.502C324.847 325.32 325.039 325.22 325.223 325.261L325.273 325.276L336.891 329.608C337.09 329.682 337.191 329.903 337.116 330.102C337.049 330.284 336.857 330.384 336.673 330.342L336.623 330.327L325.005 325.996C324.806 325.922 324.705 325.701 324.779 325.502Z" fill="#F5F5F5"/>
<path fill-rule="evenodd" clip-rule="evenodd" d="M321.718 336.604L333.768 341.096L326.148 363.396L298.996 353.273L300.194 349.86C300.637 348.607 301.916 347.852 303.228 348.069L311.226 348.637L315.715 347.909C317.067 347.689 318.187 346.749 318.632 345.453C319.588 342.667 321.214 337.945 321.718 336.604Z" fill="#121212"/>
<path fill-rule="evenodd" clip-rule="evenodd" d="M298.323 354.047C298.066 353.951 297.936 353.665 298.031 353.409L299.163 350.374C299.259 350.117 299.544 349.987 299.8 350.082L326.87 360.174C327.127 360.27 327.257 360.555 327.162 360.812L326.03 363.848C325.934 364.105 325.649 364.235 325.392 364.139L298.323 354.047Z" fill="#F5F5F5"/>
<path fill-rule="evenodd" clip-rule="evenodd" d="M299.302 349.771C300.016 347.857 302.759 346.744 304.762 347.143L310.506 348.436L309.131 353.359L299.302 349.771Z" fill="#F5F5F5"/>
<path d="M299.31 349.982C299.343 349.893 299.434 349.843 299.524 349.857L299.563 349.867L326.631 359.959C326.733 359.997 326.785 360.11 326.747 360.212C326.713 360.301 326.623 360.351 326.532 360.337L326.494 360.327L299.425 350.235C299.324 350.197 299.272 350.084 299.31 349.982Z" fill="#7D7D7D"/>
<path d="M317.356 346.191C317.509 346.044 317.753 346.05 317.899 346.204L317.975 346.286C318.047 346.367 318.14 346.479 318.249 346.619C318.5 346.941 318.741 347.302 318.953 347.693C319.323 348.374 319.567 349.075 319.639 349.78C319.672 350.106 319.309 350.321 319.039 350.136C318.733 349.925 318.204 349.664 317.522 349.377C317.193 349.238 316.844 349.1 316.488 348.965L316.247 348.875L316.266 348.938C316.308 349.085 316.347 349.239 316.383 349.399L316.434 349.642C316.52 350.078 316.576 350.53 316.595 350.992C316.609 351.329 316.215 351.519 315.96 351.299C315.579 350.97 315.072 350.634 314.471 350.3C314.085 350.086 313.675 349.88 313.255 349.687L312.921 349.536L312.952 349.601C313.154 350.054 313.275 350.544 313.292 351.065L313.294 351.24C313.291 351.452 313.117 351.621 312.905 351.619C312.693 351.616 312.523 351.442 312.526 351.23C312.532 350.713 312.411 350.232 312.193 349.792C312.079 349.561 311.946 349.356 311.806 349.181L311.731 349.091C311.686 349.038 311.651 349.002 311.63 348.982C311.326 348.697 311.632 348.199 312.024 348.341L312.274 348.436L312.582 348.559C312.69 348.602 312.802 348.649 312.918 348.698C313.582 348.98 314.239 349.293 314.843 349.628C315.13 349.787 315.397 349.947 315.643 350.108L315.746 350.177L315.724 350.031L315.681 349.79C315.606 349.412 315.512 349.068 315.408 348.764L315.336 348.565C315.308 348.491 315.285 348.436 315.269 348.401C315.129 348.095 315.423 347.769 315.742 347.878L316.149 348.021C316.228 348.05 316.311 348.08 316.396 348.111C316.884 348.29 317.37 348.479 317.821 348.669C318.1 348.787 318.355 348.901 318.585 349.01L318.71 349.071L318.676 348.96C318.595 348.72 318.493 348.479 318.372 348.239L318.278 348.06C318.087 347.708 317.869 347.382 317.642 347.09L317.534 346.954C317.451 346.852 317.385 346.777 317.343 346.734C317.197 346.58 317.203 346.337 317.356 346.191Z" fill="#E4EBF7"/>
<path d="M319.093 344.189C318.287 344.182 317.922 344.65 318.066 345.284C318.1 345.434 318.16 345.585 318.237 345.736C318.307 345.872 318.377 345.981 318.427 346.051L318.493 346.173L318.748 346.616C318.84 346.773 318.937 346.938 319.041 347.11C319.533 347.931 320.055 348.753 320.584 349.521C321.003 350.129 321.41 350.679 321.799 351.157C322.626 352.171 323.344 352.829 323.966 353.065C324.846 353.399 325.49 352.896 325.72 351.709C326.13 349.595 325.014 347.749 322.893 346.187C322.155 345.643 321.34 345.169 320.501 344.763C320.079 344.559 319.713 344.401 319.43 344.29L319.221 344.211C319.18 344.197 319.137 344.189 319.093 344.189ZM318.935 344.957L319.02 344.956L319.256 345.048C319.505 345.149 319.815 345.285 320.167 345.455C320.966 345.841 321.741 346.293 322.437 346.805C324.345 348.211 325.308 349.802 324.966 351.562C324.817 352.328 324.612 352.489 324.239 352.347C323.78 352.173 323.14 351.586 322.395 350.672C322.019 350.211 321.624 349.678 321.216 349.085C320.697 348.332 320.184 347.524 319.699 346.715L319.412 346.229L319.091 345.67C319.085 345.659 319.079 345.649 319.074 345.64C319.02 345.561 318.97 345.482 318.921 345.385C318.87 345.287 318.833 345.194 318.815 345.114L318.803 345.056C318.791 344.98 318.811 344.961 318.935 344.957Z" fill="#E4EBF7"/>
<path fill-rule="evenodd" clip-rule="evenodd" d="M381.837 168.05C380.483 171.569 377.947 177.639 377.83 181.55C377.641 187.892 382.042 192.325 382.042 192.325C382.042 192.325 381.967 190.468 383.396 206.778C402.407 208.892 414.174 204.628 414.174 204.628L413.535 200.321L415.943 189.893C415.943 189.893 417.558 185.964 420.834 177.22C423.112 171.141 422.465 163.823 421.859 159.927C421.6 158.258 420.341 156.92 418.689 156.566C412.918 155.33 410.768 155.415 410.768 155.415L409.997 151.708C409.867 151.073 409.287 150.632 408.641 150.672L394.819 151.544C394.225 151.582 393.732 152.016 393.62 152.601L392.857 156.615L384.408 158.832C383.082 159.179 382.138 160.354 382.085 161.724L381.837 168.05Z" fill="#FF4D4F"/>
<path d="M406.894 155.618C407.025 155.609 407.138 155.709 407.146 155.84C407.154 155.956 407.076 156.058 406.966 156.085L406.924 156.092L394.479 156.877C394.348 156.885 394.235 156.786 394.227 156.655C394.219 156.538 394.297 156.436 394.406 156.409L394.449 156.403L406.894 155.618Z" fill="#121212"/>
<path d="M421.838 159.69C421.969 159.679 422.085 159.775 422.096 159.905L422.174 160.82L422.232 161.556C422.271 162.06 422.309 162.586 422.345 163.129C422.415 164.175 422.473 165.199 422.516 166.175L422.536 166.659C422.623 168.883 422.617 170.669 422.494 171.862C422.367 173.106 421.743 175.163 420.741 177.824L420.643 178.084C420.447 178.597 420.24 179.127 420.023 179.67C419.589 180.758 419.13 181.861 418.665 182.942L418.118 184.201L417.595 185.374L417.554 185.458L413.562 200.424L414.276 204.819C414.293 204.923 414.24 205.024 414.149 205.07L414.107 205.086L413.79 205.172L413.71 205.193C413.386 205.278 413.005 205.372 412.569 205.474C411.325 205.764 409.893 206.053 408.293 206.324C400.592 207.625 392.08 208.019 383.322 206.959C383.208 206.945 383.121 206.852 383.114 206.738L383.052 206.002C382.979 205.187 382.845 203.792 382.663 201.933L382.043 195.662L381.769 192.924L381.62 192.681L381.441 192.385C381.349 192.229 381.251 192.061 381.148 191.883C380.662 191.033 380.175 190.114 379.72 189.158C379.107 187.867 378.6 186.61 378.238 185.424C377.908 184.343 377.705 183.344 377.649 182.445C377.505 180.166 377.688 178.368 378.23 176.52C378.518 175.537 378.908 174.527 379.481 173.245L379.715 172.73C379.839 172.463 380.012 172.095 380.204 171.687L381.639 168.659L381.543 164.821C381.54 164.704 381.621 164.605 381.732 164.583L381.774 164.578C381.891 164.575 381.99 164.656 382.013 164.767L382.018 164.809L382.116 168.704L382.093 168.811L380.229 172.752C380.147 172.929 380.079 173.075 380.031 173.18C379.402 174.57 378.986 175.629 378.686 176.653C378.16 178.447 377.982 180.19 378.123 182.415C378.177 183.274 378.372 184.237 378.692 185.285C379.047 186.447 379.545 187.683 380.149 188.954C380.598 189.898 381.08 190.807 381.561 191.646L381.757 191.984C381.82 192.092 381.881 192.195 381.939 192.292L382.2 192.717L382.236 192.821L383.321 203.788C383.419 204.811 383.493 205.596 383.539 206.108L383.573 206.51L383.973 206.557C392.275 207.5 400.345 207.138 407.69 205.942L408.214 205.855C409.672 205.609 410.988 205.346 412.148 205.083L412.461 205.011C412.821 204.927 413.142 204.848 413.425 204.776L413.772 204.685L413.085 200.449L413.09 200.35L417.108 185.298L417.496 184.434C417.587 184.229 417.682 184.014 417.781 183.787L417.881 183.558C418.461 182.228 419.041 180.849 419.582 179.494C419.798 178.953 420.004 178.426 420.198 177.915L420.474 177.181C421.358 174.787 421.907 172.931 422.022 171.813L422.049 171.51C422.137 170.404 422.14 168.847 422.072 166.95L422.061 166.677C422.018 165.563 421.953 164.377 421.871 163.16L421.816 162.362C421.797 162.1 421.778 161.844 421.759 161.593L421.623 159.949C421.611 159.818 421.708 159.702 421.838 159.69Z" fill="#121212"/>
<path fill-rule="evenodd" clip-rule="evenodd" d="M408.939 209.6C420.297 209.6 426.607 249.144 434.444 264.053C433.33 266.933 427.987 271.631 427.987 271.631C427.987 271.631 428.229 274.05 428.383 275.505C422.304 279.454 411.264 280.727 411.264 280.727L411.012 282.754C392.918 288.737 370.736 278.55 370.736 278.55C370.736 278.55 370.356 278.063 370.844 276.506C363.043 275.535 347.435 263.742 347.435 263.742L349.603 259.76L332.793 238.416C332.793 238.416 365.511 218.632 374.862 212.965C383.277 207.866 381.804 207.075 381.804 207.075C381.804 207.075 397.262 209.6 408.939 209.6Z" fill="#121212"/>
<path d="M357.793 248.14C357.884 248.007 358.065 247.972 358.198 248.062C358.317 248.142 358.357 248.294 358.302 248.42L358.276 248.466L348.141 263.447L348.248 263.548L348.584 263.852L348.71 263.964C349.329 264.512 350.061 265.123 350.902 265.781C353.306 267.664 356.101 269.547 359.255 271.304C362.859 273.313 366.705 275.027 370.772 276.356C370.925 276.406 371.008 276.57 370.958 276.723C370.908 276.876 370.744 276.96 370.591 276.91C366.487 275.569 362.607 273.839 358.971 271.813C355.79 270.04 352.97 268.14 350.543 266.24C349.777 265.641 349.1 265.08 348.515 264.569L348.324 264.4C348.192 264.284 348.07 264.175 347.96 264.074L347.613 263.751C347.589 263.728 347.571 263.71 347.557 263.697C347.469 263.611 347.446 263.48 347.495 263.371L347.52 263.326L357.793 248.14Z" fill="#7D7D7D"/>
<path d="M417.693 237.085C417.833 237.046 417.977 237.115 418.036 237.242L418.053 237.286L428.916 275.752C428.954 275.886 428.892 276.028 428.767 276.091L428.648 276.15C428.565 276.191 428.454 276.244 428.316 276.308L427.989 276.46C427.704 276.59 427.39 276.73 427.047 276.877C425.679 277.463 424.142 278.05 422.473 278.597C418.833 279.791 415.085 280.629 411.371 280.955C411.211 280.969 411.069 280.85 411.055 280.69C411.041 280.529 411.16 280.388 411.32 280.374C414.986 280.053 418.691 279.224 422.292 278.043C423.944 277.502 425.464 276.921 426.818 276.341L427.21 276.171C427.399 276.088 427.578 276.007 427.746 275.93L428.217 275.711L428.289 275.676L417.492 237.445C417.453 237.305 417.522 237.161 417.649 237.102L417.693 237.085Z" fill="#7D7D7D"/>
<path d="M405.404 204.741C405.548 204.729 405.677 204.824 405.711 204.96L405.721 205.027L406.339 212.448C406.439 213.661 406.542 214.929 406.649 216.246L406.971 220.237C407.453 226.255 407.931 232.403 408.391 238.529L408.694 242.607C408.919 245.652 409.135 248.634 409.34 251.543L409.648 255.967C410.37 266.493 410.923 275.639 411.268 283.03C411.274 283.172 411.178 283.298 411.039 283.328C400.505 285.634 389.386 284.68 378.724 281.688C376.46 281.053 374.402 280.373 372.589 279.692L372.127 279.516C371.754 279.373 371.411 279.236 371.099 279.108L370.681 278.934L370.327 278.78C370.207 278.726 370.141 278.6 370.159 278.474L370.17 278.426L390.462 214.879C390.511 214.726 390.675 214.641 390.828 214.69C390.966 214.734 391.049 214.871 391.028 215.01L391.017 215.056L370.805 278.353L371.14 278.495L371.509 278.646C371.829 278.776 372.181 278.914 372.562 279.059L372.794 279.146C374.592 279.821 376.634 280.497 378.881 281.127C389.299 284.05 400.153 285.013 410.44 282.861L410.674 282.81L410.547 280.217C410.209 273.542 409.723 265.621 409.113 256.688L408.932 254.059L408.67 250.333C408.492 247.823 408.306 245.259 408.113 242.65L407.81 238.572C407.35 232.448 406.872 226.301 406.39 220.283L405.716 211.979L405.138 205.056C405.125 204.896 405.244 204.755 405.404 204.741Z" fill="#7D7D7D"/>
<path d="M398.341 205.071C398.485 205.079 398.599 205.191 398.614 205.331L398.615 205.378L395.618 258.869C395.609 259.03 395.471 259.153 395.311 259.144C395.166 259.136 395.052 259.024 395.037 258.884L395.036 258.837L398.033 205.346C398.042 205.185 398.18 205.062 398.341 205.071Z" fill="#7D7D7D"/>
<path d="M386.199 210.601C386.293 210.47 386.475 210.44 386.606 210.534C386.722 210.618 386.759 210.771 386.7 210.895L386.673 210.941L364.536 241.787C364.443 241.917 364.261 241.947 364.13 241.853C364.014 241.77 363.977 241.617 364.036 241.492L364.063 241.447L386.199 210.601Z" fill="#7D7D7D"/>
<path fill-rule="evenodd" clip-rule="evenodd" d="M357.548 220.832L393.521 218.983L359.585 204.654L329.643 209.114L357.548 220.832Z" fill="#434343"/>
<path fill-rule="evenodd" clip-rule="evenodd" d="M356.476 218.224L382.603 216.88L358.566 206.49L336.209 209.713L356.476 218.224Z" fill="#7D7D7D"/>
<path fill-rule="evenodd" clip-rule="evenodd" d="M393.306 220.806L393.527 218.995L356.844 220.592L357.25 222.594L393.306 220.806Z" fill="#7D7D7D"/>
<path d="M353.489 207.586C353.521 207.521 353.593 207.489 353.66 207.505L353.693 207.517L373.129 217.074C373.205 217.111 373.236 217.202 373.199 217.278C373.167 217.343 373.095 217.375 373.028 217.359L372.995 217.347L353.559 207.79C353.483 207.753 353.452 207.662 353.489 207.586Z" fill="#F5F5F5"/>
<path d="M356.286 206.795C356.316 206.73 356.387 206.697 356.455 206.711L356.488 206.723L378.265 216.982C378.341 217.018 378.374 217.109 378.338 217.185C378.307 217.25 378.236 217.283 378.168 217.269L378.135 217.258L356.358 206.998C356.282 206.962 356.25 206.872 356.286 206.795Z" fill="#F5F5F5"/>
<path d="M352.99 209.392C353.022 209.328 353.095 209.296 353.162 209.313L353.195 209.325L369.488 217.62C369.563 217.658 369.592 217.75 369.554 217.825C369.522 217.889 369.449 217.92 369.382 217.904L369.349 217.892L353.056 209.597C352.981 209.559 352.952 209.467 352.99 209.392Z" fill="#F5F5F5"/>
<path d="M348.288 209.363C348.32 209.298 348.392 209.267 348.46 209.284L348.493 209.296L364.785 217.591C364.86 217.63 364.89 217.721 364.852 217.796C364.819 217.861 364.747 217.892 364.68 217.875L364.647 217.863L348.354 209.568C348.279 209.529 348.249 209.438 348.288 209.363Z" fill="#F5F5F5"/>
<path d="M343.913 209.639C343.946 209.575 344.018 209.544 344.085 209.56L344.118 209.572L360.411 217.867C360.486 217.905 360.516 217.997 360.478 218.072C360.445 218.136 360.373 218.167 360.306 218.151L360.273 218.139L343.98 209.844C343.905 209.806 343.875 209.714 343.913 209.639Z" fill="#F5F5F5"/>
<path d="M378.518 215.322C378.602 215.321 378.671 215.388 378.673 215.472C378.674 215.544 378.625 215.605 378.558 215.622L378.523 215.627L356.247 216.008C356.163 216.009 356.093 215.942 356.092 215.858C356.091 215.786 356.14 215.725 356.207 215.708L356.242 215.703L378.518 215.322Z" fill="#F5F5F5"/>
<path d="M373.822 213.085C373.906 213.084 373.976 213.151 373.977 213.235C373.978 213.307 373.929 213.368 373.862 213.385L373.827 213.39L351.552 213.772C351.468 213.773 351.398 213.706 351.397 213.622C351.396 213.55 351.445 213.488 351.512 213.471L351.547 213.467L373.822 213.085Z" fill="#F5F5F5"/>
<path d="M367.898 211.297C367.982 211.295 368.052 211.363 368.053 211.447C368.054 211.519 368.005 211.58 367.938 211.597L367.903 211.602L345.627 211.983C345.543 211.984 345.474 211.917 345.472 211.833C345.471 211.761 345.52 211.699 345.587 211.683L345.622 211.678L367.898 211.297Z" fill="#F5F5F5"/>
<path d="M364.132 207.82C364.216 207.819 364.285 207.886 364.287 207.97C364.288 208.042 364.239 208.104 364.172 208.12L364.137 208.125L341.861 208.507C341.776 208.508 341.707 208.441 341.706 208.357C341.704 208.285 341.753 208.224 341.821 208.207L341.855 208.202L364.132 207.82Z" fill="#F5F5F5"/>
<path fill-rule="evenodd" clip-rule="evenodd" d="M357.221 222.592L355.617 222.562L329.248 211.1L323.112 163.817L351.872 172.798L357.221 222.592Z" fill="#7D7D7D"/>
<path fill-rule="evenodd" clip-rule="evenodd" d="M355.56 222.558L327.751 210.484C327.497 210.374 327.319 210.138 327.283 209.863L321.337 164.419C321.262 163.847 321.805 163.392 322.355 163.564L349.631 172.122C349.93 172.216 350.145 172.478 350.178 172.789L355.56 222.558Z" fill="#121212"/>
<path fill-rule="evenodd" clip-rule="evenodd" d="M427.393 211.237L426.792 211.345C422.667 212.078 418.729 209.329 417.995 205.205L411.227 167.155C410.494 163.03 413.243 159.093 417.367 158.358L417.969 158.251C422.093 157.518 426.032 160.267 426.765 164.391L433.533 202.441C434.267 206.565 431.518 210.504 427.393 211.237Z" fill="#FFC2BD"/>
<path fill-rule="evenodd" clip-rule="evenodd" d="M429.68 180.774L426.527 163.049C425.767 158.776 421.649 155.902 417.376 156.662C413.103 157.422 410.229 161.54 410.989 165.813L414.112 183.37L429.68 180.774Z" fill="#FF4D4F"/>
<path d="M426.71 162.775C426.825 162.755 426.935 162.821 426.974 162.926L426.986 162.967L430.138 180.693C430.159 180.808 430.092 180.919 429.986 180.958L429.945 180.969L413.817 183.752C413.704 183.771 413.595 183.707 413.555 183.603L413.543 183.562L410.809 169.259C410.784 169.13 410.869 169.006 410.998 168.981C411.112 168.959 411.223 169.023 411.264 169.128L411.276 169.17L413.966 183.243L429.628 180.541L426.518 163.051C426.497 162.936 426.563 162.826 426.669 162.786L426.71 162.775Z" fill="#121212"/>
<path fill-rule="evenodd" clip-rule="evenodd" d="M380.615 209.952C380.789 212.15 382.662 213.823 384.865 213.749L427.414 212.318C431.32 212.057 434.26 208.654 433.95 204.752C433.638 200.816 430.144 197.91 426.216 198.32L384.029 205.56C381.927 205.921 380.446 207.826 380.615 209.952Z" fill="#FFC2BD"/>
<path fill-rule="evenodd" clip-rule="evenodd" d="M388.729 213.492C385.752 215.823 376.108 214.897 376.108 214.897L369.892 218.385C368.925 218.831 368.656 218.185 368.169 218.211C366.853 218.279 366.781 216.898 366.781 216.898C366.317 216.706 365.604 217.091 365.342 215.851C365.342 215.851 364.418 215.834 364.294 214.719C364.229 214.13 369.782 205.291 369.782 205.291L378.74 205.07C378.74 205.07 391.822 204.636 393.44 207.492C395.057 210.347 388.729 213.492 388.729 213.492Z" fill="#FFC2BD"/>
<path d="M369.601 204.67L385.808 205.099C385.971 205.103 386.1 205.238 386.095 205.401C386.091 205.548 385.981 205.666 385.841 205.685L385.793 205.688L369.753 205.264L368.986 206.495L368.218 207.74C368.091 207.946 367.964 208.153 367.839 208.358L366.75 210.153C365.382 212.433 364.426 214.149 364.399 214.349L364.399 214.36C364.417 214.522 364.3 214.667 364.138 214.685C363.977 214.704 363.831 214.587 363.813 214.425C363.778 214.11 364.441 212.875 365.803 210.587L366.597 209.265C367.078 208.47 367.586 207.64 368.099 206.808L369.343 204.808C369.391 204.732 369.47 204.683 369.557 204.672L369.601 204.67Z" fill="#DD936F"/>
<path d="M373.057 207.369C373.205 207.301 373.38 207.366 373.448 207.514C373.509 207.647 373.462 207.802 373.344 207.881L373.302 207.905L370.012 209.412L365.587 216.015C365.505 216.137 365.349 216.179 365.22 216.12L365.178 216.096C365.056 216.015 365.015 215.858 365.074 215.729L365.097 215.687L369.569 209.015C369.592 208.981 369.621 208.953 369.656 208.931L369.691 208.911L373.057 207.369Z" fill="#DD936F"/>
<path d="M373.755 209.754C373.902 209.684 374.078 209.747 374.147 209.894C374.21 210.027 374.165 210.182 374.049 210.263L374.007 210.287L371.405 211.519L367.013 217.08C366.923 217.193 366.767 217.223 366.643 217.158L366.599 217.128C366.485 217.039 366.456 216.882 366.521 216.759L366.55 216.714L370.986 211.099C371.004 211.076 371.027 211.055 371.052 211.038L371.091 211.016L373.755 209.754Z" fill="#DD936F"/>
<path d="M376.406 211.023C376.549 210.945 376.728 210.999 376.805 211.142C376.874 211.271 376.838 211.429 376.726 211.516L376.685 211.542L373.081 213.482L368.537 218.223C368.437 218.328 368.278 218.342 368.162 218.265L368.12 218.232C368.016 218.132 368.001 217.973 368.078 217.857L368.111 217.815L372.687 213.041L372.76 212.986L376.406 211.023Z" fill="#DD936F"/>
<path d="M332.614 238.188C332.726 238.1 332.883 238.107 332.987 238.199L333.023 238.237L349.832 259.581C349.931 259.707 349.91 259.891 349.783 259.99C349.671 260.079 349.514 260.071 349.41 259.98L349.374 259.941L332.565 238.598C332.465 238.471 332.487 238.288 332.614 238.188Z" fill="#7D7D7D"/>
<path fill-rule="evenodd" clip-rule="evenodd" d="M412 129.893C412 115.059 408.362 108 397.072 108C386.716 108 380.853 115.059 382.188 129.888C382.188 129.888 382.188 137.505 387.218 144.309C389.119 146.882 393.443 149.9 397.175 149.997C400.955 150.094 404.519 147.641 407.132 144.208C409.939 140.517 412 135.574 412 129.893Z" fill="#FFC2BD"/>
<path d="M399.513 141.122C399.675 140.96 399.937 140.959 400.099 141.121C400.261 141.283 400.261 141.546 400.099 141.708C399.889 141.918 399.508 142.219 398.973 142.517C397.918 143.104 396.708 143.409 395.375 143.28C395.147 143.257 394.98 143.055 395.002 142.827C395.024 142.599 395.227 142.432 395.455 142.454C396.607 142.566 397.653 142.302 398.57 141.792C398.841 141.641 399.078 141.48 399.281 141.32L399.386 141.235C399.447 141.184 399.489 141.145 399.513 141.122Z" fill="#F5222D"/>
<path d="M395.595 132.379L395.595 132.268C395.608 132.126 395.721 132.011 395.867 132.001C396.014 131.99 396.142 132.088 396.175 132.227L396.183 132.287L396.184 132.299C396.194 132.583 396.143 133.016 395.979 133.58C395.761 134.335 395.383 135.161 394.813 136.045L394.71 136.201L394.875 136.303L395.273 136.545C395.659 136.777 396.009 136.98 396.322 137.154L396.475 137.238C396.629 137.322 396.764 137.394 396.881 137.454L397.12 137.573C397.267 137.641 397.332 137.816 397.264 137.964C397.196 138.111 397.021 138.176 396.873 138.108L396.747 138.047L396.518 137.929C396.452 137.895 396.382 137.858 396.308 137.818L396.193 137.755C395.63 137.448 394.946 137.046 394.138 136.539C393.995 136.449 393.957 136.259 394.053 136.121C394.743 135.132 395.179 134.225 395.413 133.416C395.547 132.955 395.594 132.605 395.595 132.379Z" fill="#DD936F"/>
<path d="M386.398 133.187C386.178 133.187 386 133.008 386 132.788C386 131.256 387.154 130 388.595 130C390.035 130 391.189 131.256 391.189 132.788C391.189 133.008 391.011 133.187 390.79 133.187C390.57 133.187 390.392 133.008 390.392 132.788C390.392 131.682 389.579 130.797 388.595 130.797C387.61 130.797 386.797 131.682 386.797 132.788C386.797 133.008 386.618 133.187 386.398 133.187Z" fill="#121212"/>
<path d="M400.379 132.146C400.17 132.146 400 131.976 400 131.767C400 130.253 401.037 129 402.355 129C403.673 129 404.709 130.253 404.709 131.767C404.709 131.976 404.54 132.146 404.331 132.146C404.122 132.146 403.952 131.976 403.952 131.767C403.952 130.642 403.219 129.756 402.355 129.756C401.49 129.756 400.757 130.643 400.757 131.767C400.757 131.976 400.588 132.146 400.379 132.146Z" fill="#121212"/>
<path d="M385.206 126.129C386.65 125.442 388.239 125.164 389.833 125.598C390.126 125.677 390.416 125.781 390.7 125.91C390.901 126.001 390.989 126.237 390.899 126.438C390.808 126.638 390.572 126.727 390.371 126.636C390.126 126.525 389.876 126.435 389.623 126.367C388.241 125.99 386.836 126.236 385.548 126.849C385.385 126.927 385.236 127.005 385.1 127.082L384.97 127.159C384.871 127.218 384.805 127.262 384.774 127.284C384.595 127.411 384.346 127.37 384.219 127.19C384.091 127.011 384.133 126.762 384.312 126.634C384.485 126.511 384.79 126.327 385.206 126.129Z" fill="#121212"/>
<path d="M399.206 125.129C400.65 124.442 402.239 124.164 403.833 124.598C404.126 124.677 404.416 124.781 404.7 124.91C404.901 125.001 404.989 125.237 404.899 125.438C404.808 125.638 404.572 125.727 404.371 125.636C404.126 125.525 403.876 125.435 403.623 125.367C402.241 124.99 400.836 125.236 399.548 125.849C399.385 125.927 399.236 126.005 399.1 126.082L398.97 126.159C398.871 126.218 398.805 126.262 398.774 126.284C398.595 126.411 398.346 126.37 398.219 126.19C398.091 126.011 398.133 125.762 398.312 125.634C398.485 125.511 398.79 125.327 399.206 125.129Z" fill="#121212"/>
<path fill-rule="evenodd" clip-rule="evenodd" d="M395.201 114.607C395.201 114.607 389.561 114.173 386.835 117.702C384.091 121.254 385.987 125.021 384.626 126.061C382.607 130.671 382.864 132.381 383.5 136.5C380.399 130.251 380.991 124.615 380.924 120.551C380.878 117.768 380.968 112.433 386.701 111.184C392.435 109.934 395.201 114.607 395.201 114.607Z" fill="#434343"/>
<path fill-rule="evenodd" clip-rule="evenodd" d="M395.264 113.371C395.264 113.371 389.597 112.367 386.481 115.652C383.344 118.959 384.884 122.949 383.401 123.861C380.891 128.308 381.918 129.107 382.147 133.326C379.637 126.712 379.866 122.038 380.207 117.932C380.442 115.121 381.071 109.748 387.002 109.064C392.935 108.38 395.264 113.371 395.264 113.371Z" fill="#434343"/>
<path fill-rule="evenodd" clip-rule="evenodd" d="M395.182 111.355C395.182 111.355 389.545 110.354 386.446 113.627C383.326 116.922 384.857 120.898 383.383 121.807C380.887 126.237 381.908 127.034 382.135 131.236C379.639 124.647 379.866 119.99 380.206 115.9C380.439 113.098 381.065 107.746 386.964 107.064C392.865 106.383 395.182 111.355 395.182 111.355Z" fill="#434343"/>
<path fill-rule="evenodd" clip-rule="evenodd" d="M392.774 114.794C392.774 114.794 392.114 109.145 392 105.51C391.977 104.791 395.653 103.488 396.765 103.238C403.799 101.647 406.244 108.435 412.421 111.871C418.547 115.28 416.532 116.98 418.093 120.96C419.342 124.142 421.951 123.126 423.766 127.323C425.241 130.73 422.161 132.829 423.994 135.274C426.716 138.91 428.077 140.046 427.396 143.227C426.489 146.409 419.455 149.362 419.455 149.362L418.321 145.046C418.321 145.046 419.023 149.389 417.413 150.725C415.879 151.997 411.74 154.361 406.295 157.087C405.614 155.271 403.972 150.853 406.048 146.831C408.685 141.719 406.273 141.476 405.614 136.637C404.933 131.639 407.657 129.367 403.345 125.959C399.888 123.225 400.511 121.158 399.715 118.233C398.354 113.235 392.774 114.794 392.774 114.794Z" fill="#434343"/>
<path fill-rule="evenodd" clip-rule="evenodd" d="M410.373 130.278C410.373 130.278 412.061 127.594 414.071 128.72C415.809 129.691 416.304 136.706 411.324 137.998L410.373 130.278Z" fill="#FFC2BD"/>
</g>
</g>
<defs>
<filter id="filter0_d_157_173400" x="-7.5" y="0" width="557" height="378" filterUnits="userSpaceOnUse" color-interpolation-filters="sRGB">
<feFlood flood-opacity="0" result="BackgroundImageFix"/>
<feColorMatrix in="SourceAlpha" type="matrix" values="0 0 0 0 0 0 0 0 0 0 0 0 0 0 0 0 0 0 127 0" result="hardAlpha"/>
<feOffset dy="2"/>
<feGaussianBlur stdDeviation="4"/>
<feColorMatrix type="matrix" values="0 0 0 0 0 0 0 0 0 0 0 0 0 0 0 0 0 0 0.15 0"/>
<feBlend mode="normal" in2="BackgroundImageFix" result="effect1_dropShadow_157_173400"/>
<feBlend mode="normal" in="SourceGraphic" in2="effect1_dropShadow_157_173400" result="shape"/>
</filter>
<filter id="filter1_ddd_157_173400" x="250" y="59" width="233" height="372" filterUnits="userSpaceOnUse" color-interpolation-filters="sRGB">
<feFlood flood-opacity="0" result="BackgroundImageFix"/>
<feColorMatrix in="SourceAlpha" type="matrix" values="0 0 0 0 0 0 0 0 0 0 0 0 0 0 0 0 0 0 127 0" result="hardAlpha"/>
<feMorphology radius="8" operator="dilate" in="SourceAlpha" result="effect1_dropShadow_157_173400"/>
<feOffset dy="9"/>
<feGaussianBlur stdDeviation="14"/>
<feColorMatrix type="matrix" values="0 0 0 0 0 0 0 0 0 0 0 0 0 0 0 0 0 0 0.05 0"/>
<feBlend mode="normal" in2="BackgroundImageFix" result="effect1_dropShadow_157_173400"/>
<feColorMatrix in="SourceAlpha" type="matrix" values="0 0 0 0 0 0 0 0 0 0 0 0 0 0 0 0 0 0 127 0" result="hardAlpha"/>
<feOffset dy="6"/>
<feGaussianBlur stdDeviation="8"/>
<feColorMatrix type="matrix" values="0 0 0 0 0 0 0 0 0 0 0 0 0 0 0 0 0 0 0.08 0"/>
<feBlend mode="normal" in2="effect1_dropShadow_157_173400" result="effect2_dropShadow_157_173400"/>
<feColorMatrix in="SourceAlpha" type="matrix" values="0 0 0 0 0 0 0 0 0 0 0 0 0 0 0 0 0 0 127 0" result="hardAlpha"/>
<feMorphology radius="4" operator="erode" in="SourceAlpha" result="effect3_dropShadow_157_173400"/>
<feOffset dy="3"/>
<feGaussianBlur stdDeviation="3"/>
<feColorMatrix type="matrix" values="0 0 0 0 0 0 0 0 0 0 0 0 0 0 0 0 0 0 0.12 0"/>
<feBlend mode="normal" in2="effect2_dropShadow_157_173400" result="effect3_dropShadow_157_173400"/>
<feBlend mode="normal" in="SourceGraphic" in2="effect3_dropShadow_157_173400" result="shape"/>
</filter>
<clipPath id="clip0_157_173400">
<rect width="541" height="362" fill="white" transform="translate(0.5 6)"/>
</clipPath>
</defs>
</svg>
