<svg width="1rem" height="1rem" viewBox="0 0 489 335" fill="none" xmlns="http://www.w3.org/2000/svg">
<g filter="url(#filter0_d_144_173267)">
<path d="M327.788 56.7365C328.231 56.7365 328.594 57.0829 328.619 57.5197L328.62 57.5685V142.841C328.62 143.301 328.248 143.673 327.788 143.673C327.345 143.673 326.983 143.327 326.958 142.89L326.956 142.841V57.5685C326.956 57.109 327.329 56.7365 327.788 56.7365Z" fill="#F5F5F5"/>
<path d="M343.607 66.8803H146.905C142.493 66.8803 138.917 70.4564 138.917 74.8678V165.473C138.917 169.884 142.493 173.46 146.905 173.46H343.607C348.018 173.46 351.594 169.884 351.594 165.473V74.8678C351.594 70.4564 348.018 66.8803 343.607 66.8803Z" fill="#7D7D7D"/>
<path d="M316.972 93.5053H226.78C225.309 93.5053 224.117 94.6974 224.117 96.1678V101.493C224.117 102.963 225.309 104.155 226.78 104.155H316.972C318.442 104.155 319.634 102.963 319.634 101.493V96.1678C319.634 94.6974 318.442 93.5053 316.972 93.5053Z" fill="#121212"/>
<path d="M275.037 136.105H226.78C225.309 136.105 224.117 137.297 224.117 138.768V144.093C224.117 145.563 225.309 146.755 226.78 146.755H275.037C276.508 146.755 277.7 145.563 277.7 144.093V138.768C277.7 137.297 276.508 136.105 275.037 136.105Z" fill="#121212"/>
<path d="M316.972 114.805H226.78C225.309 114.805 224.117 115.997 224.117 117.468V122.793C224.117 124.263 225.309 125.455 226.78 125.455H316.972C318.442 125.455 319.634 124.263 319.634 122.793V117.468C319.634 115.997 318.442 114.805 316.972 114.805Z" fill="#121212"/>
<path d="M189.505 93.5053H157.555C154.614 93.5053 152.23 95.8894 152.23 98.8303V130.78C152.23 133.721 154.614 136.105 157.555 136.105H189.505C192.446 136.105 194.83 133.721 194.83 130.78V98.8303C194.83 95.8894 192.446 93.5053 189.505 93.5053Z" fill="#121212"/>
<path d="M208.309 93.5053V162.843" stroke="#121212" stroke-width="6" stroke-linecap="round" stroke-linejoin="round"/>
<g filter="url(#filter1_d_144_173267)">
<path d="M308.994 131.859H112.292C107.881 131.859 104.305 135.435 104.305 139.846V230.451C104.305 234.862 107.881 238.438 112.292 238.438H308.994C313.406 238.438 316.982 234.862 316.982 230.451V139.846C316.982 135.435 313.406 131.859 308.994 131.859Z" fill="#F5F5F5"/>
</g>
<path d="M282.359 158.484H192.167C190.697 158.484 189.505 159.676 189.505 161.146V166.471C189.505 167.942 190.697 169.134 192.167 169.134H282.359C283.83 169.134 285.022 167.942 285.022 166.471V161.146C285.022 159.676 283.83 158.484 282.359 158.484Z" fill="#BFBFBF"/>
<path d="M240.425 201.084H192.167C190.697 201.084 189.505 202.276 189.505 203.746V209.071C189.505 210.542 190.697 211.734 192.167 211.734H240.425C241.895 211.734 243.087 210.542 243.087 209.071V203.746C243.087 202.276 241.895 201.084 240.425 201.084Z" fill="#BFBFBF"/>
<path d="M282.359 179.784H192.167C190.697 179.784 189.505 180.976 189.505 182.446V187.771C189.505 189.242 190.697 190.434 192.167 190.434H282.359C283.83 190.434 285.022 189.242 285.022 187.771V182.446C285.022 180.976 283.83 179.784 282.359 179.784Z" fill="#BFBFBF"/>
<path d="M154.892 158.484H122.942C120.001 158.484 117.617 160.868 117.617 163.809V195.759C117.617 198.7 120.001 201.084 122.942 201.084H154.892C157.833 201.084 160.217 198.7 160.217 195.759V163.809C160.217 160.868 157.833 158.484 154.892 158.484Z" fill="#BFBFBF"/>
<path d="M173.696 156.82C174.139 156.82 174.501 157.166 174.527 157.603L174.528 157.652V226.99C174.528 227.449 174.156 227.822 173.696 227.822C173.253 227.822 172.891 227.475 172.865 227.039L172.864 226.99V157.652C172.864 157.192 173.237 156.82 173.696 156.82Z" fill="#BFBFBF"/>
<g clip-path="url(#clip0_144_173267)">
<g filter="url(#filter2_d_144_173267)">
<path d="M323.196 200.952H336.765V285.376C336.765 287.31 335.198 288.878 333.264 288.878H326.698C324.764 288.878 323.196 287.31 323.196 285.376V200.952Z" fill="#121212"/>
</g>
<path d="M332.784 187.391H327.556L323.196 200.961H336.764L332.784 187.391Z" fill="#BFBFBF"/>
<path d="M329.861 181.746L327.719 187.4H332.68L330.405 181.74C330.361 181.628 330.252 181.555 330.131 181.557C330.011 181.558 329.903 181.633 329.861 181.746Z" fill="#121212"/>
<path d="M385.635 278.539H393.055V285.168C393.055 287.217 391.394 288.878 389.344 288.878C387.295 288.878 385.634 287.217 385.634 285.168V278.539H385.635Z" fill="#121212"/>
<path d="M390.191 182.748C390.191 182.226 389.768 181.803 389.246 181.803C388.724 181.803 388.301 182.226 388.301 182.748V185.126C388.301 185.648 388.724 186.071 389.246 186.071C389.768 186.071 390.191 185.648 390.191 185.126V182.748Z" fill="#121212"/>
<path d="M383.893 196.22H394.793V277.955C394.793 279.889 393.225 281.457 391.291 281.457H387.395C385.461 281.457 383.893 279.889 383.893 277.955V196.22Z" fill="#7D7D7D"/>
<path d="M390.751 185.192L394.8 196.22H383.893L387.764 185.201C387.846 184.967 388.067 184.81 388.316 184.81H390.196C390.444 184.807 390.666 184.961 390.751 185.192Z" fill="#BFBFBF"/>
<path d="M394.793 274.036H383.899V276.008H394.793V274.036Z" fill="#F5F5F5"/>
<path d="M397.994 260.649H394.792V273.714H397.994V260.649Z" fill="#121212"/>
<path d="M399.307 247.797C399.307 247.071 398.719 246.483 397.994 246.483C397.268 246.483 396.681 247.071 396.681 247.797V280.188C396.681 280.913 397.268 281.501 397.994 281.501C398.719 281.501 399.307 280.913 399.307 280.188V247.797Z" fill="#7D7D7D"/>
<path d="M361.3 190.147H356.886C356.29 190.147 355.806 189.664 355.806 189.068V183.474C355.806 182.959 356.17 182.516 356.674 182.416L361.087 181.54C361.404 181.477 361.733 181.558 361.983 181.763C362.234 181.968 362.379 182.275 362.379 182.598V189.068C362.379 189.664 361.896 190.147 361.3 190.147Z" fill="#FF7875"/>
<path d="M367.62 202.884H351.092V272.887H367.62V202.884Z" fill="#FF7875"/>
<path d="M351.092 263.273H367.62V285.522C367.62 287.456 366.053 289.024 364.119 289.024H354.594C352.66 289.024 351.092 287.456 351.092 285.522V263.273Z" fill="#121212"/>
<path d="M367.62 202.884H351.092V209.013H367.62V202.884Z" fill="#121212"/>
<path d="M367.62 199.141V202.884H351.092V199.113L355.552 187.957H362.649L367.62 199.141Z" fill="#BFBFBF"/>
<path d="M367.593 199.166H351.064V202.936H367.593V199.166Z" fill="#F5F5F5"/>
<path d="M367.593 269.347H351.064V273.117H367.593V269.347Z" fill="#F5F5F5"/>
<path d="M363.827 224.78C363.827 226.839 362.925 227.581 361.12 226.982C359.315 226.382 358.387 225.012 358.387 222.887V221.164C358.387 220.902 358.222 220.668 357.974 220.581L355.414 219.68C355.166 219.593 355.001 219.359 355.001 219.097V218.965C355.001 218.764 355.098 218.576 355.262 218.46C355.427 218.343 355.637 218.314 355.827 218.382L363.414 221.09C363.66 221.178 363.824 221.412 363.824 221.673L363.827 224.78ZM360.448 221.45C360.258 221.383 360.048 221.413 359.885 221.529C359.721 221.645 359.624 221.833 359.625 222.034V223.229C359.625 223.861 359.747 224.364 359.97 224.732C360.194 225.099 360.588 225.377 361.12 225.556C361.653 225.735 362.022 225.702 362.245 225.49C362.468 225.279 362.591 224.86 362.591 224.247V222.642C362.591 222.38 362.425 222.146 362.178 222.059L360.448 221.45Z" fill="#F5F5F5"/>
<path d="M363.029 234.998C362.769 234.918 362.591 234.678 362.591 234.407V230.536C362.588 230.269 362.416 230.034 362.162 229.952L360.951 229.563C360.764 229.502 360.558 229.534 360.398 229.649C360.239 229.764 360.144 229.949 360.143 230.146V232.999C360.143 233.195 360.05 233.379 359.893 233.496C359.735 233.613 359.532 233.648 359.344 233.591C359.084 233.511 358.907 233.271 358.907 232.999V229.351C358.905 229.085 358.733 228.85 358.479 228.767L357.046 228.29C356.859 228.23 356.654 228.262 356.495 228.378C356.335 228.493 356.24 228.677 356.238 228.874V232.298C356.238 232.494 356.146 232.679 355.988 232.795C355.831 232.912 355.627 232.947 355.44 232.889C355.18 232.81 355.003 232.57 355.002 232.298V227.034C355.003 226.837 355.098 226.652 355.259 226.536C355.419 226.421 355.625 226.389 355.812 226.45L363.399 228.931C363.652 229.013 363.824 229.248 363.825 229.514V234.397C363.828 234.594 363.737 234.78 363.579 234.899C363.422 235.018 363.217 235.054 363.029 234.998Z" fill="#F5F5F5"/>
<path d="M363.827 237.738C363.826 237.993 363.669 238.222 363.431 238.314L357.461 240.616V240.665L363.374 242.308C363.642 242.382 363.826 242.625 363.827 242.903V243.037C363.827 243.23 363.737 243.411 363.584 243.528C363.431 243.645 363.232 243.684 363.046 243.634L355.459 241.563C355.19 241.49 355.004 241.247 355.004 240.968V240.457C355.001 240.2 355.158 239.967 355.398 239.874L361.456 237.509V237.461L355.441 235.698C355.181 235.619 355.003 235.378 355.004 235.106V234.952C355.004 234.757 355.096 234.573 355.253 234.457C355.409 234.34 355.612 234.304 355.799 234.36L363.386 236.629C363.646 236.709 363.824 236.949 363.824 237.221L363.827 237.738Z" fill="#F5F5F5"/>
<path d="M357.254 247.661C357.254 247.261 356.93 246.937 356.53 246.937C356.13 246.937 355.806 247.261 355.806 247.661V253.436C355.806 253.836 356.13 254.16 356.53 254.16C356.93 254.16 357.254 253.836 357.254 253.436V247.661Z" fill="#7D7D7D"/>
<g filter="url(#filter3_d_144_173267)">
<path d="M332.825 200.998H327.282V288.878H332.825V200.998Z" fill="#F5F5F5"/>
</g>
</g>
<path fill-rule="evenodd" clip-rule="evenodd" d="M103.5 198.984C76.7055 198.984 54.9844 220.706 54.9844 247.5C54.9844 274.294 76.7055 296.016 103.5 296.016C130.294 296.016 152.016 274.294 152.016 247.5C152.016 220.706 130.294 198.984 103.5 198.984Z" fill="#FF4D4F"/>
<path fill-rule="evenodd" clip-rule="evenodd" d="M95.6826 263.98L92.6196 260.917L122.301 231.128C123.316 230.113 124.961 230.113 125.977 231.128L127.202 232.353C128.217 233.368 128.217 235.014 127.202 236.029L99.3582 263.98C98.3433 264.995 96.6976 264.995 95.6826 263.98Z" fill="white"/>
<path fill-rule="evenodd" clip-rule="evenodd" d="M102.416 260.917L99.3527 263.98C98.3377 264.995 96.692 264.995 95.6771 263.98L83.4804 251.784C82.4654 250.769 82.4654 249.123 83.4804 248.108L84.7055 246.883C85.7206 245.868 87.3662 245.868 88.3812 246.883L102.416 260.917Z" fill="white"/>
<g clip-path="url(#clip1_144_173267)">
<g filter="url(#filter4_ddd_144_173267)">
<path fill-rule="evenodd" clip-rule="evenodd" d="M358.719 25.0075H321.195C319.975 25.0075 318.956 25.9138 318.785 27.1221C317.669 35.0074 310.479 39.0612 307.339 40.4285C306.452 40.8147 305.875 41.6869 305.875 42.6546V74.7419C305.875 95.7402 339.957 109.12 339.957 109.12C339.957 109.12 374.039 95.7402 374.039 74.7419V42.6545C374.039 41.6869 373.463 40.8147 372.575 40.4285C369.435 39.0612 362.245 35.0074 361.129 27.1221C360.959 25.9138 359.939 25.1088 358.719 25.1088V25.0075Z" fill="#F5F5F5"/>
</g>
<path fill-rule="evenodd" clip-rule="evenodd" d="M355.564 31.2586C356.027 32.6876 356.646 34.0661 357.418 35.3822C358.552 37.3166 360.02 39.1196 361.781 40.741C363.756 42.5593 365.843 43.9195 367.657 44.9029V74.5685C367.657 82.5988 359.967 89.7112 353.515 94.2637C348.27 97.9645 342.929 100.624 339.953 101.985C337.025 100.649 331.803 98.0502 326.588 94.3963C322.175 91.3049 318.706 88.1154 316.277 84.9169C314.955 83.1756 313.945 81.4292 313.277 79.7266C312.591 77.9762 312.257 76.289 312.257 74.5685V44.9029C314.071 43.9195 316.158 42.5592 318.133 40.741C319.894 39.1196 321.362 37.3167 322.497 35.3822C323.268 34.0662 323.887 32.6876 324.35 31.2586H355.564Z" fill="#FF7875"/>
<path fill-rule="evenodd" clip-rule="evenodd" d="M341.592 47.9547L330.389 64.9532C329.786 65.8748 330.434 67.0081 331.521 67.0081H336.539L330.369 78.6192C329.909 79.5576 331.095 80.4285 331.822 79.6861L348.603 62.8896C349.459 62.0157 348.852 60.5227 347.64 60.5227H340.051L343.226 48.6926C343.474 47.6857 342.157 47.0909 341.592 47.9547Z" fill="white"/>
</g>
</g>
<defs>
<filter id="filter0_d_144_173267" x="-8" y="-3" width="505" height="348" filterUnits="userSpaceOnUse" color-interpolation-filters="sRGB">
<feFlood flood-opacity="0" result="BackgroundImageFix"/>
<feColorMatrix in="SourceAlpha" type="matrix" values="0 0 0 0 0 0 0 0 0 0 0 0 0 0 0 0 0 0 127 0" result="hardAlpha"/>
<feOffset dy="2"/>
<feGaussianBlur stdDeviation="4"/>
<feColorMatrix type="matrix" values="0 0 0 0 0 0 0 0 0 0 0 0 0 0 0 0 0 0 0.15 0"/>
<feBlend mode="normal" in2="BackgroundImageFix" result="effect1_dropShadow_144_173267"/>
<feBlend mode="normal" in="SourceGraphic" in2="effect1_dropShadow_144_173267" result="shape"/>
</filter>
<filter id="filter1_d_144_173267" x="96.3047" y="125.859" width="228.677" height="122.58" filterUnits="userSpaceOnUse" color-interpolation-filters="sRGB">
<feFlood flood-opacity="0" result="BackgroundImageFix"/>
<feColorMatrix in="SourceAlpha" type="matrix" values="0 0 0 0 0 0 0 0 0 0 0 0 0 0 0 0 0 0 127 0" result="hardAlpha"/>
<feOffset dy="2"/>
<feGaussianBlur stdDeviation="4"/>
<feColorMatrix type="matrix" values="0 0 0 0 0 0 0 0 0 0 0 0 0 0 0 0 0 0 0.15 0"/>
<feBlend mode="normal" in2="BackgroundImageFix" result="effect1_dropShadow_144_173267"/>
<feBlend mode="normal" in="SourceGraphic" in2="effect1_dropShadow_144_173267" result="shape"/>
</filter>
<filter id="filter2_d_144_173267" x="315.196" y="194.952" width="29.5693" height="103.926" filterUnits="userSpaceOnUse" color-interpolation-filters="sRGB">
<feFlood flood-opacity="0" result="BackgroundImageFix"/>
<feColorMatrix in="SourceAlpha" type="matrix" values="0 0 0 0 0 0 0 0 0 0 0 0 0 0 0 0 0 0 127 0" result="hardAlpha"/>
<feOffset dy="2"/>
<feGaussianBlur stdDeviation="4"/>
<feColorMatrix type="matrix" values="0 0 0 0 0 0 0 0 0 0 0 0 0 0 0 0 0 0 0.15 0"/>
<feBlend mode="normal" in2="BackgroundImageFix" result="effect1_dropShadow_144_173267"/>
<feBlend mode="normal" in="SourceGraphic" in2="effect1_dropShadow_144_173267" result="shape"/>
</filter>
<filter id="filter3_d_144_173267" x="319.282" y="194.998" width="21.543" height="103.88" filterUnits="userSpaceOnUse" color-interpolation-filters="sRGB">
<feFlood flood-opacity="0" result="BackgroundImageFix"/>
<feColorMatrix in="SourceAlpha" type="matrix" values="0 0 0 0 0 0 0 0 0 0 0 0 0 0 0 0 0 0 127 0" result="hardAlpha"/>
<feOffset dy="2"/>
<feGaussianBlur stdDeviation="4"/>
<feColorMatrix type="matrix" values="0 0 0 0 0 0 0 0 0 0 0 0 0 0 0 0 0 0 0.15 0"/>
<feBlend mode="normal" in2="BackgroundImageFix" result="effect1_dropShadow_144_173267"/>
<feBlend mode="normal" in="SourceGraphic" in2="effect1_dropShadow_144_173267" result="shape"/>
</filter>
<filter id="filter4_ddd_144_173267" x="269.875" y="-1.99249" width="140.164" height="156.113" filterUnits="userSpaceOnUse" color-interpolation-filters="sRGB">
<feFlood flood-opacity="0" result="BackgroundImageFix"/>
<feColorMatrix in="SourceAlpha" type="matrix" values="0 0 0 0 0 0 0 0 0 0 0 0 0 0 0 0 0 0 127 0" result="hardAlpha"/>
<feMorphology radius="8" operator="dilate" in="SourceAlpha" result="effect1_dropShadow_144_173267"/>
<feOffset dy="9"/>
<feGaussianBlur stdDeviation="14"/>
<feColorMatrix type="matrix" values="0 0 0 0 0 0 0 0 0 0 0 0 0 0 0 0 0 0 0.05 0"/>
<feBlend mode="normal" in2="BackgroundImageFix" result="effect1_dropShadow_144_173267"/>
<feColorMatrix in="SourceAlpha" type="matrix" values="0 0 0 0 0 0 0 0 0 0 0 0 0 0 0 0 0 0 127 0" result="hardAlpha"/>
<feOffset dy="6"/>
<feGaussianBlur stdDeviation="8"/>
<feColorMatrix type="matrix" values="0 0 0 0 0 0 0 0 0 0 0 0 0 0 0 0 0 0 0.08 0"/>
<feBlend mode="normal" in2="effect1_dropShadow_144_173267" result="effect2_dropShadow_144_173267"/>
<feColorMatrix in="SourceAlpha" type="matrix" values="0 0 0 0 0 0 0 0 0 0 0 0 0 0 0 0 0 0 127 0" result="hardAlpha"/>
<feMorphology radius="4" operator="erode" in="SourceAlpha" result="effect3_dropShadow_144_173267"/>
<feOffset dy="3"/>
<feGaussianBlur stdDeviation="3"/>
<feColorMatrix type="matrix" values="0 0 0 0 0 0 0 0 0 0 0 0 0 0 0 0 0 0 0.12 0"/>
<feBlend mode="normal" in2="effect2_dropShadow_144_173267" result="effect3_dropShadow_144_173267"/>
<feBlend mode="normal" in="SourceGraphic" in2="effect3_dropShadow_144_173267" result="shape"/>
</filter>
<clipPath id="clip0_144_173267">
<rect width="124.507" height="124.507" fill="white" transform="translate(299 173)"/>
</clipPath>
<clipPath id="clip1_144_173267">
<rect width="96" height="96" fill="white" transform="translate(292 19)"/>
</clipPath>
</defs>
</svg>
