<svg width="68" height="81" viewBox="0 0 68 81" fill="none" xmlns="http://www.w3.org/2000/svg">
<g clip-path="url(#clip0_640_95)">
<path fill-rule="evenodd" clip-rule="evenodd" d="M18.986 50.6641C15.1927 52.415 11.9921 46.8664 10.9077 44.4962C8.97096 40.2564 10.449 35.3886 12.394 34.3579C14.1747 33.4151 16.0243 34.6331 16.0243 34.6331C16.0243 34.6331 19.1808 37.7822 19.913 44.442C20.3522 48.4271 18.986 50.6641 18.986 50.6641Z" fill="#F4B784"/>
<path fill-rule="evenodd" clip-rule="evenodd" d="M50.906 49.0588C54.2556 50.4893 57.0841 45.9561 58.0419 44.0197C59.7527 40.5558 58.447 36.5788 56.729 35.7367C55.1561 34.9665 53.5222 35.9616 53.5222 35.9616C53.5222 35.9616 50.734 38.5344 50.0873 43.9754C49.6992 47.2312 50.906 49.0588 50.906 49.0588Z" fill="#F4B784"/>
<mask id="mask0_640_95" style="mask-type:luminance" maskUnits="userSpaceOnUse" x="19" y="54" width="30" height="27">
<path fill-rule="evenodd" clip-rule="evenodd" d="M19.5017 54.2356H48.7438V80.562H19.5017V54.2356Z" fill="white"/>
</mask>
<g mask="url(#mask0_640_95)">
<path fill-rule="evenodd" clip-rule="evenodd" d="M48.7263 65.2827L48.1943 54.2356H20.0511L19.5191 65.2663C19.1294 73.3542 25.3423 80.1744 33.3522 80.5364C33.4833 80.5427 33.6144 80.5478 33.7468 80.5528C42.2075 80.8568 49.1384 73.8234 48.7263 65.2827Z" fill="#F4B784"/>
</g>
<path fill-rule="evenodd" clip-rule="evenodd" d="M33.6126 11.3608C19.0089 11.3608 11.5548 24.1991 14.1111 39.1741C15.3674 46.5342 15.3199 46.3891 16.9784 53.7151C17.7314 57.0464 24.8296 67.8728 34.734 67.8728C43.9939 67.8728 50.7088 57.3126 51.4618 53.9056C53.0478 46.7271 53.1353 46.5644 54.0968 39.1741C56.0575 24.107 49.1978 11.3608 34.5954 11.3608H33.6126Z" fill="#FFC999"/>
<path fill-rule="evenodd" clip-rule="evenodd" d="M34.6802 68.2181C29.6699 68.2181 25.6163 65.4897 23.0974 63.2016C22.9688 63.0856 22.9575 62.885 23.0737 62.7563C23.1898 62.6264 23.3884 62.6163 23.5145 62.7324C25.9522 64.9473 29.8685 67.5874 34.6802 67.5874C39.4082 67.5874 43.2308 64.7619 45.6048 62.3905C45.7284 62.2682 45.9257 62.2695 46.0469 62.3931C46.168 62.5167 46.1667 62.7172 46.0444 62.8396C43.5854 65.293 39.6192 68.2181 34.6802 68.2181Z" fill="#DD936F"/>
<path fill-rule="evenodd" clip-rule="evenodd" d="M50.4238 21.0841C51.4601 25.5071 51.2286 30.4035 51.2286 30.4035L52.6044 32.4691L54.0031 39.5263C54.7394 36.3547 55.3472 29.8975 55.3472 29.052C55.3472 15.5689 48.4541 5.7522 34.9351 5.7522C19.2762 5.7522 12.6527 15.0465 12.6527 29.0332C12.6527 34.6348 14.3718 39.6841 14.3718 39.6841L15.192 32.4691C15.192 32.4691 16.3656 30.6352 16.4457 30.3534C16.7445 29.295 16.5703 25.1676 17.5786 21.0653C17.5786 21.0653 49.7079 21.0841 50.4238 21.0841Z" fill="#3E4C56"/>
<path fill-rule="evenodd" clip-rule="evenodd" d="M11.2535 19.3712C10.0813 25.3753 12.0746 31.4961 17.5872 20.5477C20.0504 24.2565 31.4867 32.2612 27.9675 21.3128C33.8325 26.4929 40.4011 28.2588 37.6442 22.5495C43.5092 28.6702 51.3675 28.906 47.8483 23.2556C58.2873 32.5547 53.9482 20.6656 53.9482 20.6656C53.9482 20.6656 57.6912 22.8844 56.9976 18.3114C56.1765 12.8968 49.2567 7.71671 49.2567 7.71671C49.2567 7.71671 52.4223 6.42233 47.9657 4.0681C43.5092 1.71387 36.9406 2.65581 36.9406 2.65581C36.9406 2.65581 40.4598 1.94841 37.8791 0.301581C35.2984 -1.34651 26.9702 -0.876161 21.9275 4.89214C21.9275 4.89214 14.5153 4.63753 12.4258 7.48217C10.7849 9.7185 13.8342 10.8962 13.8342 10.8962C13.8342 10.8962 10.3425 13.189 9.14273 15.8392C7.96923 18.4293 11.2535 19.3712 11.2535 19.3712Z" fill="#232E36"/>
<path fill-rule="evenodd" clip-rule="evenodd" d="M19.47 33.74C19.1173 33.74 18.8179 33.3542 18.7892 32.8437C18.7591 32.3079 19.0394 31.8383 19.4153 31.7935L28.3444 30.7706C28.4387 30.7609 28.5317 30.7765 28.6205 30.8193L30.5931 31.7799C30.9498 31.9533 31.1412 32.5086 31.0182 33.0171C30.8965 33.5256 30.5083 33.8023 30.1502 33.6231L28.3129 32.7287L19.526 33.738C19.5069 33.74 19.4877 33.74 19.47 33.74Z" fill="#3E4C56"/>
<path fill-rule="evenodd" clip-rule="evenodd" d="M49.97 33.74C49.9519 33.74 49.9324 33.74 49.9128 33.738L40.9507 32.7287L39.0754 33.6231C38.7087 33.8004 38.3142 33.5256 38.1901 33.0171C38.066 32.5086 38.2612 31.9533 38.6251 31.7799L40.637 30.8193C40.7276 30.7765 40.8252 30.7609 40.9186 30.7706L50.0258 31.7935C50.4092 31.8383 50.695 32.3079 50.6643 32.8437C50.6351 33.3542 50.3297 33.74 49.97 33.74Z" fill="#3E4C56"/>
<path fill-rule="evenodd" clip-rule="evenodd" d="M35.36 51.478H32.0091C31.6634 51.478 31.3828 51.1952 31.3828 50.8467C31.3828 50.4982 31.6634 50.2154 32.0091 50.2154H34.7174L34.4694 40.6418C34.4669 40.5218 34.4982 40.4032 34.5596 40.2996L36.4699 37.1C36.6478 36.8007 37.0336 36.7048 37.3292 36.8853C37.6261 37.0646 37.7213 37.4523 37.5422 37.7515L35.7258 40.7933L35.9864 50.8303C35.9901 51.0008 35.9262 51.1649 35.8085 51.2874C35.6907 51.4086 35.5291 51.478 35.36 51.478Z" fill="#DD936F"/>
<path fill-rule="evenodd" clip-rule="evenodd" d="M35.8741 60.1288H32.4931C32.1496 60.1288 31.8707 59.853 31.8707 59.5133C31.8707 59.1735 32.1496 58.8977 32.4931 58.8977H35.8741C36.2177 58.8977 36.4965 59.1735 36.4965 59.5133C36.4965 59.853 36.2177 60.1288 35.8741 60.1288Z" fill="#DD936F"/>
<path fill-rule="evenodd" clip-rule="evenodd" d="M37.0053 55.9258H31.045C30.0168 55.9258 29.0333 55.6094 28.2018 55.0099C27.9242 54.8105 27.8619 54.4251 28.0648 54.1506C28.2678 53.8748 28.6561 53.8157 28.935 54.0152C29.5524 54.4596 30.2819 54.6947 31.045 54.6947H37.0053C37.8642 54.6947 38.6983 54.4485 39.4178 53.9832C39.7041 53.7973 40.0912 53.876 40.2792 54.1617C40.4672 54.446 40.3863 54.8277 40.0987 55.0136C39.1763 55.6107 38.107 55.9258 37.0053 55.9258Z" fill="#DD936F"/>
<path fill-rule="evenodd" clip-rule="evenodd" d="M46.4267 38.1843C46.4267 39.5442 45.4583 40.6471 44.2644 40.6471C43.0705 40.6471 42.1035 39.5442 42.1035 38.1843C42.1035 36.8243 43.0705 35.7214 44.2644 35.7214C45.4583 35.7214 46.4267 36.8243 46.4267 38.1843Z" fill="#232E36"/>
<path fill-rule="evenodd" clip-rule="evenodd" d="M25.1192 40.6471C23.9268 40.6471 22.9584 39.5442 22.9584 38.1843C22.9584 36.8243 23.9268 35.7214 25.1192 35.7214C26.3146 35.7214 27.2815 36.8243 27.2815 38.1843C27.2815 39.5442 26.3146 40.6471 25.1192 40.6471Z" fill="#232E36"/>
</g>
<defs>
<clipPath id="clip0_640_95">
<rect width="67" height="81" fill="white" transform="translate(0.5)"/>
</clipPath>
</defs>
</svg>
