<svg width="150" height="37" viewBox="0 0 150 37" fill="none" xmlns="http://www.w3.org/2000/svg">
<circle cx="7" cy="14.5" r="3" fill="#FF4D4F"/>
<rect x="4" y="21.5" width="28" height="6" fill="#121212"/>
<rect x="14" y="11.5" width="18" height="6" fill="#121212"/>
<path d="M66.8504 17.064H66.2904C66.2904 15.5707 65.8144 14.1893 64.8624 12.92C63.9104 11.6507 62.5477 11.016 60.7744 11.016C59.7851 11.016 58.9637 11.5947 58.3104 12.752C57.6757 13.9093 57.3584 15.888 57.3584 18.688C57.3584 21.488 57.6757 23.4667 58.3104 24.624C58.9637 25.7813 59.9717 26.36 61.3344 26.36C62.7157 26.36 63.8731 25.9307 64.8064 25.072C65.7584 24.2133 66.3464 23 66.5704 21.432H67.1304C66.8691 23.28 66.2157 24.6613 65.1704 25.576C64.1437 26.472 62.9117 26.92 61.4744 26.92C58.6931 26.92 56.5557 26.2573 55.0624 24.932C53.5877 23.588 52.8504 21.4973 52.8504 18.66C52.8504 15.804 53.5691 13.7227 55.0064 12.416C56.4624 11.1093 58.3851 10.456 60.7744 10.456C62.0624 10.456 63.3131 10.8013 64.5264 11.492C64.9184 11.7347 65.2357 11.856 65.4784 11.856C65.7397 11.856 65.9451 11.744 66.0944 11.52C66.2437 11.2773 66.3184 11.044 66.3184 10.82H66.8504V17.064ZM82.5184 25.94C82.3317 26.1267 81.977 26.2947 81.4544 26.444C80.9317 26.5747 80.325 26.64 79.6344 26.64C78.1037 26.64 77.1424 26.1827 76.7504 25.268C75.817 26.2387 74.389 26.724 72.4664 26.724C71.4397 26.724 70.5904 26.4907 69.9184 26.024C69.265 25.5387 68.9384 24.8293 68.9384 23.896C68.9384 22.6453 69.4237 21.684 70.3944 21.012C71.365 20.3213 73.0637 19.836 75.4904 19.556L76.6104 19.416V18.044C76.6104 16.42 76.489 15.328 76.2464 14.768C76.0037 14.208 75.5184 13.928 74.7904 13.928C74.081 13.928 73.6237 14.0307 73.4184 14.236C73.213 14.4227 73.1384 14.6467 73.1944 14.908C73.2504 15.1507 73.3437 15.4773 73.4744 15.888C73.605 16.2987 73.6704 16.6253 73.6704 16.868C73.6704 17.4467 73.465 17.9413 73.0544 18.352C72.6624 18.744 72.177 18.94 71.5984 18.94C71.0384 18.94 70.553 18.744 70.1424 18.352C69.7317 17.9413 69.5264 17.4467 69.5264 16.868C69.5264 15.916 70.0117 15.104 70.9824 14.432C71.9717 13.7413 73.437 13.396 75.3784 13.396C77.3384 13.396 78.729 13.7787 79.5504 14.544C80.3904 15.3093 80.8104 16.6627 80.8104 18.604V23.644C80.8104 24.6333 80.9317 25.2587 81.1744 25.52C81.417 25.7627 81.865 25.8093 82.5184 25.66V25.94ZM72.8304 23.336C72.9237 24.0453 73.185 24.596 73.6144 24.988C74.0437 25.3613 74.5384 25.548 75.0984 25.548C75.677 25.548 76.181 25.268 76.6104 24.708V19.948L75.6024 20.088C74.7437 20.2 74.0437 20.5267 73.5024 21.068C72.9797 21.6093 72.7557 22.3653 72.8304 23.336ZM91.1962 26.5H84.1962V25.94H85.5962V14.18H84.1962V13.62H89.7962V16.952C89.9642 16.0373 90.2628 15.2907 90.6922 14.712C91.1402 14.1333 91.6255 13.7507 92.1482 13.564C92.6895 13.3773 93.2028 13.284 93.6882 13.284C94.1922 13.284 94.6682 13.3773 95.1162 13.564C95.5828 13.732 95.9282 14.0867 96.1522 14.628C96.3762 15.1507 96.3855 15.6827 96.1802 16.224C95.9748 16.7467 95.6108 17.12 95.0882 17.344C94.5842 17.568 94.1175 17.596 93.6882 17.428C93.2588 17.26 92.9508 17.036 92.7642 16.756C92.5775 16.4573 92.4468 16.1773 92.3722 15.916C92.1855 15.2253 91.9335 14.88 91.6162 14.88C91.2615 14.88 90.8695 15.496 90.4402 16.728C90.0108 17.9413 89.7962 19.2293 89.7962 20.592V25.94H91.1962V26.5ZM103.023 26.836C101.511 26.836 100.205 26.2387 99.1033 25.044C98.002 23.8493 97.4513 22.16 97.4513 19.976C97.4513 17.792 97.9927 16.084 99.0753 14.852C100.158 13.62 101.474 13.004 103.023 13.004C103.789 13.004 104.507 13.1627 105.179 13.48C105.851 13.7973 106.337 14.2733 106.635 14.908V8.3H105.235V7.74H110.835V25.94H112.235V26.5H106.635V25.212C106.131 26.2947 104.927 26.836 103.023 26.836ZM106.635 20.368V15.748C106.131 14.74 105.469 14.236 104.647 14.236C103.845 14.236 103.154 14.7027 102.575 15.636C101.997 16.5693 101.707 18.0533 101.707 20.088C101.707 22.104 102.006 23.5787 102.603 24.512C103.201 25.4453 103.919 25.8467 104.759 25.716C105.226 25.6413 105.581 25.492 105.823 25.268C106.365 24.7453 106.635 23.112 106.635 20.368ZM130.161 26.5H123.161V25.94H124.561V14.18H122.881V13.62H124.561C124.561 9.51333 126.409 7.46 130.105 7.46C131.412 7.46 132.41 7.74 133.101 8.3C133.792 8.84133 134.137 9.476 134.137 10.204C134.137 10.652 133.988 11.0067 133.689 11.268C133.409 11.5107 133.073 11.632 132.681 11.632C131.673 11.632 131.169 11.0347 131.169 9.84C131.169 8.62667 130.814 8.02 130.105 8.02C129.582 8.02 129.228 8.47733 129.041 9.392C128.854 10.288 128.761 11.6973 128.761 13.62H132.401V14.18H128.761V25.94H130.161V26.5ZM141.183 29.608C140.679 30.6907 140.147 31.4653 139.587 31.932C139.027 32.4173 138.28 32.66 137.347 32.66C136.414 32.66 135.686 32.4547 135.163 32.044C134.64 31.652 134.379 31.12 134.379 30.448C134.379 29.7947 134.566 29.272 134.939 28.88C135.331 28.488 135.798 28.292 136.339 28.292C136.88 28.292 137.338 28.3947 137.711 28.6C138.084 28.8053 138.346 29.0293 138.495 29.272C138.906 29.9253 139.288 30.252 139.643 30.252C140.016 30.252 140.343 29.9347 140.623 29.3L141.799 26.528L135.247 14.18H134.127V13.62H141.659V14.18H140.259L144.011 21.572L147.231 14.18H144.991V13.62H149.583V14.18H147.903L141.183 29.608Z" fill="#121212"/>
<path d="M119.792 25.94H121.192V26.5H114.192V25.94H115.592V14.18H114.472V13.62H119.792V25.94ZM120.044 9.924C120.044 10.596 119.802 11.1747 119.316 11.66C118.85 12.1267 118.271 12.36 117.58 12.36C116.908 12.36 116.33 12.1267 115.844 11.66C115.359 11.1747 115.116 10.596 115.116 9.924C115.116 9.23333 115.359 8.64533 115.844 8.16C116.33 7.67467 116.908 7.432 117.58 7.432C118.271 7.432 118.85 7.67467 119.316 8.16C119.802 8.64533 120.044 9.23333 120.044 9.924Z" fill="#FF4D4F"/>
</svg>
